<svg width="3650" height="710" viewBox="0 0 3650 710" fill="none" xmlns="http://www.w3.org/2000/svg">
<rect width="3650" height="710" rx="34" fill="#00072F"/>
<path d="M1455.77 464V259.25H1518.77C1536.77 259.25 1552.84 263.328 1567 271.484C1581.25 279.547 1592.36 291.078 1600.33 306.078C1608.3 320.984 1612.28 337.953 1612.28 356.984V366.406C1612.28 385.438 1608.34 402.359 1600.47 417.172C1592.69 431.984 1581.67 443.469 1567.42 451.625C1553.17 459.781 1537.09 463.906 1519.19 464H1455.77ZM1497.95 293.422V430.109H1518.34C1534.84 430.109 1547.45 424.719 1556.17 413.938C1564.89 403.156 1569.34 387.734 1569.53 367.672V356.844C1569.53 336.031 1565.22 320.281 1556.59 309.594C1547.97 298.812 1535.36 293.422 1518.77 293.422H1497.95ZM1634.08 386.516C1634.08 371.422 1636.98 357.969 1642.8 346.156C1648.61 334.344 1656.95 325.203 1667.83 318.734C1678.8 312.266 1691.5 309.031 1705.94 309.031C1726.47 309.031 1743.2 315.312 1756.14 327.875C1769.17 340.438 1776.44 357.5 1777.94 379.062L1778.22 389.469C1778.22 412.812 1771.7 431.562 1758.67 445.719C1745.64 459.781 1728.16 466.812 1706.22 466.812C1684.28 466.812 1666.75 459.781 1653.62 445.719C1640.59 431.656 1634.08 412.531 1634.08 388.344V386.516ZM1674.72 389.469C1674.72 403.906 1677.44 414.969 1682.88 422.656C1688.31 430.25 1696.09 434.047 1706.22 434.047C1716.06 434.047 1723.75 430.297 1729.28 422.797C1734.81 415.203 1737.58 403.109 1737.58 386.516C1737.58 372.359 1734.81 361.391 1729.28 353.609C1723.75 345.828 1715.97 341.938 1705.94 341.938C1696 341.938 1688.31 345.828 1682.88 353.609C1677.44 361.297 1674.72 373.25 1674.72 389.469ZM1866.53 434.047C1874.03 434.047 1880.12 431.984 1884.81 427.859C1889.5 423.734 1891.94 418.25 1892.12 411.406H1930.23C1930.14 421.719 1927.33 431.188 1921.8 439.812C1916.27 448.344 1908.67 455 1899.02 459.781C1889.45 464.469 1878.86 466.812 1867.23 466.812C1845.48 466.812 1828.33 459.922 1815.77 446.141C1803.2 432.266 1796.92 413.141 1796.92 388.766V386.094C1796.92 362.656 1803.16 343.953 1815.62 329.984C1828.09 316.016 1845.2 309.031 1866.95 309.031C1885.98 309.031 1901.22 314.469 1912.66 325.344C1924.19 336.125 1930.05 350.516 1930.23 368.516H1892.12C1891.94 360.641 1889.5 354.266 1884.81 349.391C1880.12 344.422 1873.94 341.938 1866.25 341.938C1856.78 341.938 1849.61 345.406 1844.73 352.344C1839.95 359.188 1837.56 370.344 1837.56 385.812V390.031C1837.56 405.688 1839.95 416.938 1844.73 423.781C1849.52 430.625 1856.78 434.047 1866.53 434.047ZM2044.56 448.531C2034.53 460.719 2020.66 466.812 2002.94 466.812C1986.62 466.812 1974.16 462.125 1965.53 452.75C1957 443.375 1952.64 429.641 1952.45 411.547V311.844H1993.09V410.141C1993.09 425.984 2000.31 433.906 2014.75 433.906C2028.53 433.906 2038 429.125 2043.16 419.562V311.844H2083.94V464H2045.69L2044.56 448.531ZM2152.7 311.844L2153.97 328.859C2164.75 315.641 2179.33 309.031 2197.7 309.031C2217.3 309.031 2230.75 316.766 2238.06 332.234C2248.75 316.766 2263.98 309.031 2283.77 309.031C2300.27 309.031 2312.55 313.859 2320.61 323.516C2328.67 333.078 2332.7 347.516 2332.7 366.828V464H2291.92V366.969C2291.92 358.344 2290.23 352.062 2286.86 348.125C2283.48 344.094 2277.53 342.078 2269 342.078C2256.81 342.078 2248.38 347.891 2243.69 359.516L2243.83 464H2203.19V367.109C2203.19 358.297 2201.45 351.922 2197.98 347.984C2194.52 344.047 2188.61 342.078 2180.27 342.078C2168.73 342.078 2160.39 346.859 2155.23 356.422V464H2114.59V311.844H2152.7ZM2434.09 466.812C2411.78 466.812 2393.59 459.969 2379.53 446.281C2365.56 432.594 2358.58 414.359 2358.58 391.578V387.641C2358.58 372.359 2361.53 358.719 2367.44 346.719C2373.34 334.625 2381.69 325.344 2392.47 318.875C2403.34 312.312 2415.72 309.031 2429.59 309.031C2450.41 309.031 2466.77 315.594 2478.67 328.719C2490.67 341.844 2496.67 360.453 2496.67 384.547V401.141H2399.78C2401.09 411.078 2405.03 419.047 2411.59 425.047C2418.25 431.047 2426.64 434.047 2436.77 434.047C2452.42 434.047 2464.66 428.375 2473.47 417.031L2493.44 439.391C2487.34 448.016 2479.09 454.766 2468.69 459.641C2458.28 464.422 2446.75 466.812 2434.09 466.812ZM2429.45 341.938C2421.39 341.938 2414.83 344.656 2409.77 350.094C2404.8 355.531 2401.61 363.312 2400.2 373.438H2456.73V370.203C2456.55 361.203 2454.11 354.266 2449.42 349.391C2444.73 344.422 2438.08 341.938 2429.45 341.938ZM2557.28 311.844L2558.55 329.422C2569.42 315.828 2584 309.031 2602.28 309.031C2618.41 309.031 2630.41 313.766 2638.28 323.234C2646.16 332.703 2650.19 346.859 2650.38 365.703V464H2609.73V366.688C2609.73 358.062 2607.86 351.828 2604.11 347.984C2600.36 344.047 2594.12 342.078 2585.41 342.078C2573.97 342.078 2565.39 346.953 2559.67 356.703V464H2519.03V311.844H2557.28ZM2729.97 274.438V311.844H2755.98V341.656H2729.97V417.594C2729.97 423.219 2731.05 427.25 2733.2 429.688C2735.36 432.125 2739.48 433.344 2745.58 433.344C2750.08 433.344 2754.06 433.016 2757.53 432.359V463.156C2749.56 465.594 2741.36 466.812 2732.92 466.812C2704.42 466.812 2689.89 452.422 2689.33 423.641V341.656H2667.11V311.844H2689.33V274.438H2729.97ZM2866.8 464C2864.92 460.344 2863.56 455.797 2862.72 450.359C2852.88 461.328 2840.08 466.812 2824.33 466.812C2809.42 466.812 2797.05 462.5 2787.2 453.875C2777.45 445.25 2772.58 434.375 2772.58 421.25C2772.58 405.125 2778.53 392.75 2790.44 384.125C2802.44 375.5 2819.73 371.141 2842.33 371.047H2861.03V362.328C2861.03 355.297 2859.2 349.672 2855.55 345.453C2851.98 341.234 2846.31 339.125 2838.53 339.125C2831.69 339.125 2826.3 340.766 2822.36 344.047C2818.52 347.328 2816.59 351.828 2816.59 357.547H2775.95C2775.95 348.734 2778.67 340.578 2784.11 333.078C2789.55 325.578 2797.23 319.719 2807.17 315.5C2817.11 311.188 2828.27 309.031 2840.64 309.031C2859.39 309.031 2874.25 313.766 2885.22 323.234C2896.28 332.609 2901.81 345.828 2901.81 362.891V428.844C2901.91 443.281 2903.92 454.203 2907.86 461.609V464H2866.8ZM2833.19 435.734C2839.19 435.734 2844.72 434.422 2849.78 431.797C2854.84 429.078 2858.59 425.469 2861.03 420.969V394.812H2845.84C2825.5 394.812 2814.67 401.844 2813.36 415.906L2813.22 418.297C2813.22 423.359 2815 427.531 2818.56 430.812C2822.12 434.094 2827 435.734 2833.19 435.734ZM2981.69 274.438V311.844H3007.7V341.656H2981.69V417.594C2981.69 423.219 2982.77 427.25 2984.92 429.688C2987.08 432.125 2991.2 433.344 2997.3 433.344C3001.8 433.344 3005.78 433.016 3009.25 432.359V463.156C3001.28 465.594 2993.08 466.812 2984.64 466.812C2956.14 466.812 2941.61 452.422 2941.05 423.641V341.656H2918.83V311.844H2941.05V274.438H2981.69ZM3073.23 464H3032.45V311.844H3073.23V464ZM3030.06 272.469C3030.06 266.375 3032.08 261.359 3036.11 257.422C3040.23 253.484 3045.81 251.516 3052.84 251.516C3059.78 251.516 3065.31 253.484 3069.44 257.422C3073.56 261.359 3075.62 266.375 3075.62 272.469C3075.62 278.656 3073.52 283.719 3069.3 287.656C3065.17 291.594 3059.69 293.562 3052.84 293.562C3046 293.562 3040.47 291.594 3036.25 287.656C3032.12 283.719 3030.06 278.656 3030.06 272.469ZM3100.52 386.516C3100.52 371.422 3103.42 357.969 3109.23 346.156C3115.05 334.344 3123.39 325.203 3134.27 318.734C3145.23 312.266 3157.94 309.031 3172.38 309.031C3192.91 309.031 3209.64 315.312 3222.58 327.875C3235.61 340.438 3242.88 357.5 3244.38 379.062L3244.66 389.469C3244.66 412.812 3238.14 431.562 3225.11 445.719C3212.08 459.781 3194.59 466.812 3172.66 466.812C3150.72 466.812 3133.19 459.781 3120.06 445.719C3107.03 431.656 3100.52 412.531 3100.52 388.344V386.516ZM3141.16 389.469C3141.16 403.906 3143.88 414.969 3149.31 422.656C3154.75 430.25 3162.53 434.047 3172.66 434.047C3182.5 434.047 3190.19 430.297 3195.72 422.797C3201.25 415.203 3204.02 403.109 3204.02 386.516C3204.02 372.359 3201.25 361.391 3195.72 353.609C3190.19 345.828 3182.41 341.938 3172.38 341.938C3162.44 341.938 3154.75 345.828 3149.31 353.609C3143.88 361.297 3141.16 373.25 3141.16 389.469ZM3307.09 311.844L3308.36 329.422C3319.23 315.828 3333.81 309.031 3352.09 309.031C3368.22 309.031 3380.22 313.766 3388.09 323.234C3395.97 332.703 3400 346.859 3400.19 365.703V464H3359.55V366.688C3359.55 358.062 3357.67 351.828 3353.92 347.984C3350.17 344.047 3343.94 342.078 3335.22 342.078C3323.78 342.078 3315.2 346.953 3309.48 356.703V464H3268.84V311.844H3307.09Z" fill="url(#paint0_linear)"/>
<path d="M435.234 356.897C435.234 349.444 436.688 342.741 439.594 336.788C442.547 330.835 446.625 326.241 451.828 323.007C457.078 319.772 463.055 318.155 469.758 318.155C480.117 318.155 488.484 321.741 494.859 328.913C501.281 336.085 504.492 345.624 504.492 357.53V358.444C504.492 365.85 503.062 372.507 500.203 378.413C497.391 384.272 493.336 388.843 488.039 392.124C482.789 395.405 476.742 397.046 469.898 397.046C459.586 397.046 451.219 393.46 444.797 386.288C438.422 379.116 435.234 369.624 435.234 357.811V356.897ZM448.312 358.444C448.312 366.882 450.258 373.655 454.148 378.764C458.086 383.874 463.336 386.428 469.898 386.428C476.508 386.428 481.758 383.85 485.648 378.694C489.539 373.491 491.484 366.225 491.484 356.897C491.484 348.553 489.492 341.803 485.508 336.647C481.57 331.444 476.32 328.843 469.758 328.843C463.336 328.843 458.156 331.397 454.219 336.507C450.281 341.616 448.312 348.928 448.312 358.444ZM533.039 319.561L533.391 327.999C538.969 321.436 546.492 318.155 555.961 318.155C566.602 318.155 573.844 322.233 577.688 330.389C580.219 326.733 583.5 323.78 587.531 321.53C591.609 319.28 596.414 318.155 601.945 318.155C618.633 318.155 627.117 326.991 627.398 344.663V395.639H614.391V345.436C614.391 339.999 613.148 335.944 610.664 333.272C608.18 330.553 604.008 329.194 598.148 329.194C593.32 329.194 589.312 330.647 586.125 333.553C582.938 336.413 581.086 340.28 580.57 345.155V395.639H567.492V345.788C567.492 334.725 562.078 329.194 551.25 329.194C542.719 329.194 536.883 332.827 533.742 340.093V395.639H520.734V319.561H533.039ZM711.352 358.444C711.352 370.022 708.703 379.35 703.406 386.428C698.109 393.507 690.938 397.046 681.891 397.046C672.656 397.046 665.391 394.116 660.094 388.257V424.889H647.086V319.561H658.969L659.602 327.999C664.898 321.436 672.258 318.155 681.68 318.155C690.82 318.155 698.039 321.6 703.336 328.491C708.68 335.382 711.352 344.968 711.352 357.249V358.444ZM698.344 356.968C698.344 348.389 696.516 341.616 692.859 336.647C689.203 331.678 684.188 329.194 677.812 329.194C669.938 329.194 664.031 332.686 660.094 339.671V376.022C663.984 382.96 669.938 386.428 677.953 386.428C684.188 386.428 689.133 383.968 692.789 379.046C696.492 374.077 698.344 366.718 698.344 356.968ZM774.914 395.639C774.164 394.139 773.555 391.468 773.086 387.624C767.039 393.905 759.82 397.046 751.43 397.046C743.93 397.046 737.766 394.936 732.938 390.718C728.156 386.452 725.766 381.061 725.766 374.546C725.766 366.624 728.766 360.483 734.766 356.124C740.812 351.718 749.297 349.514 760.219 349.514H772.875V343.538C772.875 338.991 771.516 335.382 768.797 332.71C766.078 329.991 762.07 328.632 756.773 328.632C752.133 328.632 748.242 329.803 745.102 332.147C741.961 334.491 740.391 337.327 740.391 340.655H727.312C727.312 336.858 728.648 333.202 731.32 329.686C734.039 326.124 737.695 323.311 742.289 321.249C746.93 319.186 752.016 318.155 757.547 318.155C766.312 318.155 773.18 320.358 778.148 324.764C783.117 329.124 785.695 335.147 785.883 342.835V377.85C785.883 384.835 786.773 390.389 788.555 394.514V395.639H774.914ZM753.328 385.725C757.406 385.725 761.273 384.671 764.93 382.561C768.586 380.452 771.234 377.71 772.875 374.335V358.725H762.68C746.742 358.725 738.773 363.389 738.773 372.718C738.773 376.796 740.133 379.983 742.852 382.28C745.57 384.577 749.062 385.725 753.328 385.725ZM818.578 319.561L819 329.124C824.812 321.811 832.406 318.155 841.781 318.155C857.859 318.155 865.969 327.225 866.109 345.366V395.639H853.102V345.296C853.055 339.811 851.789 335.757 849.305 333.132C846.867 330.507 843.047 329.194 837.844 329.194C833.625 329.194 829.922 330.319 826.734 332.569C823.547 334.819 821.062 337.772 819.281 341.428V395.639H806.273V319.561H818.578ZM899.859 395.639H886.852V319.561H899.859V395.639ZM885.797 299.382C885.797 297.272 886.43 295.491 887.695 294.038C889.008 292.585 890.93 291.858 893.461 291.858C895.992 291.858 897.914 292.585 899.227 294.038C900.539 295.491 901.195 297.272 901.195 299.382C901.195 301.491 900.539 303.249 899.227 304.655C897.914 306.061 895.992 306.764 893.461 306.764C890.93 306.764 889.008 306.061 887.695 304.655C886.43 303.249 885.797 301.491 885.797 299.382ZM917.297 356.897C917.297 349.444 918.75 342.741 921.656 336.788C924.609 330.835 928.688 326.241 933.891 323.007C939.141 319.772 945.117 318.155 951.82 318.155C962.18 318.155 970.547 321.741 976.922 328.913C983.344 336.085 986.555 345.624 986.555 357.53V358.444C986.555 365.85 985.125 372.507 982.266 378.413C979.453 384.272 975.398 388.843 970.102 392.124C964.852 395.405 958.805 397.046 951.961 397.046C941.648 397.046 933.281 393.46 926.859 386.288C920.484 379.116 917.297 369.624 917.297 357.811V356.897ZM930.375 358.444C930.375 366.882 932.32 373.655 936.211 378.764C940.148 383.874 945.398 386.428 951.961 386.428C958.57 386.428 963.82 383.85 967.711 378.694C971.602 373.491 973.547 366.225 973.547 356.897C973.547 348.553 971.555 341.803 967.57 336.647C963.633 331.444 958.383 328.843 951.82 328.843C945.398 328.843 940.219 331.397 936.281 336.507C932.344 341.616 930.375 348.928 930.375 358.444ZM1015.17 319.561L1015.59 329.124C1021.41 321.811 1029 318.155 1038.38 318.155C1054.45 318.155 1062.56 327.225 1062.7 345.366V395.639H1049.7V345.296C1049.65 339.811 1048.38 335.757 1045.9 333.132C1043.46 330.507 1039.64 329.194 1034.44 329.194C1030.22 329.194 1026.52 330.319 1023.33 332.569C1020.14 334.819 1017.66 337.772 1015.88 341.428V395.639H1002.87V319.561H1015.17Z" fill="white"/>
<mask id="mask0" mask-type="alpha" maskUnits="userSpaceOnUse" x="207" y="236" width="220" height="238">
<path fill-rule="evenodd" clip-rule="evenodd" d="M368.536 316.846L424.384 288.035C402.962 256.623 366.89 236 326 236C260.278 236 207 289.278 207 355C207 420.722 260.278 474 326 474C368.361 474 405.552 451.866 426.64 418.532L368.536 388.558C358.309 400.155 343.207 407.492 326.361 407.492C295.556 407.492 270.585 382.961 270.585 352.702C270.585 322.442 295.556 297.912 326.361 297.912C343.207 297.912 358.309 305.249 368.536 316.846Z" fill="#C4C4C4"/>
</mask>
<g mask="url(#mask0)">
<rect x="160.38" y="218.467" width="339.148" height="276.688" fill="url(#paint1_linear)"/>
<path d="M295.624 427.268L330.523 514.167L487.341 567.076L405.941 364.372L295.624 427.268Z" fill="white"/>
<path d="M295.223 427.246L427.877 420.605L405.518 364.364L295.223 427.246Z" fill="url(#paint2_linear)"/>
</g>
<rect x="1093" y="325" width="170" height="61" rx="30.5" fill="url(#paint3_linear)"/>
<path d="M1135.29 369V343.406H1144.25C1147.36 343.406 1149.71 344.004 1151.32 345.199C1152.92 346.383 1153.72 348.123 1153.72 350.42C1153.72 351.674 1153.4 352.781 1152.76 353.742C1152.11 354.691 1151.22 355.389 1150.07 355.834C1151.38 356.162 1152.41 356.824 1153.16 357.82C1153.92 358.816 1154.3 360.035 1154.3 361.477C1154.3 363.938 1153.52 365.801 1151.95 367.066C1150.38 368.332 1148.14 368.977 1145.23 369H1135.29ZM1140.56 357.855V364.764H1145.08C1146.32 364.764 1147.29 364.471 1147.98 363.885C1148.68 363.287 1149.03 362.467 1149.03 361.424C1149.03 359.08 1147.82 357.891 1145.39 357.855H1140.56ZM1140.56 354.129H1144.46C1147.12 354.082 1148.45 353.021 1148.45 350.947C1148.45 349.787 1148.11 348.955 1147.43 348.451C1146.76 347.936 1145.7 347.678 1144.25 347.678H1140.56V354.129ZM1173.68 357.908H1163.55V364.764H1175.43V369H1158.28V343.406H1175.4V347.678H1163.55V353.777H1173.68V357.908ZM1198.14 347.678H1190.3V369H1185.03V347.678H1177.3V343.406H1198.14V347.678ZM1213.51 363.727H1204.26L1202.5 369H1196.9L1206.42 343.406H1211.31L1220.89 369H1215.28L1213.51 363.727ZM1205.69 359.455H1212.08L1208.87 349.875L1205.69 359.455Z" fill="white"/>
<defs>
<linearGradient id="paint0_linear" x1="1411" y1="354.584" x2="3441.32" y2="391.823" gradientUnits="userSpaceOnUse">
<stop stop-color="#F767E9"/>
<stop offset="1" stop-color="#6349FF"/>
</linearGradient>
<linearGradient id="paint1_linear" x1="306.668" y1="475.431" x2="304.751" y2="137.379" gradientUnits="userSpaceOnUse">
<stop stop-color="#F767E9"/>
<stop offset="1" stop-color="#6349FF"/>
</linearGradient>
<linearGradient id="paint2_linear" x1="311.934" y1="452.234" x2="398.873" y2="417.317" gradientUnits="userSpaceOnUse">
<stop stop-color="#1A237E" stop-opacity="0.4"/>
<stop offset="1" stop-color="#1A237E" stop-opacity="0"/>
</linearGradient>
<linearGradient id="paint3_linear" x1="1093" y1="355" x2="1263" y2="355" gradientUnits="userSpaceOnUse">
<stop stop-color="#FF9900"/>
<stop offset="1" stop-color="#FF3D00"/>
</linearGradient>
</defs>
</svg>
