<svg width="1805" height="524" viewBox="0 0 1805 524" fill="none" xmlns="http://www.w3.org/2000/svg">
<rect width="1805" height="524" rx="34" fill="#00072F"/>
<path d="M557.953 287.625L584.25 361.875L610.406 287.625H638.109V390H616.945V362.016L619.055 313.711L591.422 390H576.938L549.375 313.781L551.484 362.016V390H530.391V287.625H557.953ZM699.281 390C698.344 388.172 697.664 385.898 697.242 383.18C692.32 388.664 685.922 391.406 678.047 391.406C670.594 391.406 664.406 389.25 659.484 384.938C654.609 380.625 652.172 375.188 652.172 368.625C652.172 360.562 655.148 354.375 661.102 350.062C667.102 345.75 675.75 343.57 687.047 343.523H696.398V339.164C696.398 335.648 695.484 332.836 693.656 330.727C691.875 328.617 689.039 327.562 685.148 327.562C681.727 327.562 679.031 328.383 677.062 330.023C675.141 331.664 674.18 333.914 674.18 336.773H653.859C653.859 332.367 655.219 328.289 657.938 324.539C660.656 320.789 664.5 317.859 669.469 315.75C674.438 313.594 680.016 312.516 686.203 312.516C695.578 312.516 703.008 314.883 708.492 319.617C714.023 324.305 716.789 330.914 716.789 339.445V372.422C716.836 379.641 717.844 385.102 719.812 388.805V390H699.281ZM682.477 375.867C685.477 375.867 688.242 375.211 690.773 373.898C693.305 372.539 695.18 370.734 696.398 368.484V355.406H688.805C678.633 355.406 673.219 358.922 672.562 365.953L672.492 367.148C672.492 369.68 673.383 371.766 675.164 373.406C676.945 375.047 679.383 375.867 682.477 375.867ZM729.234 351.398C729.234 339.539 731.883 330.094 737.18 323.062C742.523 316.031 749.812 312.516 759.047 312.516C766.453 312.516 772.57 315.281 777.398 320.812V282H797.789V390H779.438L778.453 381.914C773.391 388.242 766.875 391.406 758.906 391.406C749.953 391.406 742.758 387.891 737.32 380.859C731.93 373.781 729.234 363.961 729.234 351.398ZM749.555 352.875C749.555 360 750.797 365.461 753.281 369.258C755.766 373.055 759.375 374.953 764.109 374.953C770.391 374.953 774.82 372.305 777.398 367.008V336.984C774.867 331.688 770.484 329.039 764.25 329.039C754.453 329.039 749.555 336.984 749.555 352.875ZM848.555 391.406C837.398 391.406 828.305 387.984 821.273 381.141C814.289 374.297 810.797 365.18 810.797 353.789V351.82C810.797 344.18 812.273 337.359 815.227 331.359C818.18 325.312 822.352 320.672 827.742 317.438C833.18 314.156 839.367 312.516 846.305 312.516C856.711 312.516 864.891 315.797 870.844 322.359C876.844 328.922 879.844 338.227 879.844 350.273V358.57H831.398C832.055 363.539 834.023 367.523 837.305 370.523C840.633 373.523 844.828 375.023 849.891 375.023C857.719 375.023 863.836 372.188 868.242 366.516L878.227 377.695C875.18 382.008 871.055 385.383 865.852 387.82C860.648 390.211 854.883 391.406 848.555 391.406ZM846.234 328.969C842.203 328.969 838.922 330.328 836.391 333.047C833.906 335.766 832.312 339.656 831.609 344.719H859.875V343.102C859.781 338.602 858.562 335.133 856.219 332.695C853.875 330.211 850.547 328.969 846.234 328.969ZM928.641 390V287.625H960.141C969.141 287.625 977.18 289.664 984.258 293.742C991.383 297.773 996.938 303.539 1000.92 311.039C1004.91 318.492 1006.9 326.977 1006.9 336.492V341.203C1006.9 350.719 1004.93 359.18 1000.99 366.586C997.102 373.992 991.594 379.734 984.469 383.812C977.344 387.891 969.305 389.953 960.352 390H928.641ZM949.734 304.711V373.055H959.93C968.18 373.055 974.484 370.359 978.844 364.969C983.203 359.578 985.43 351.867 985.523 341.836V336.422C985.523 326.016 983.367 318.141 979.055 312.797C974.742 307.406 968.438 304.711 960.141 304.711H949.734ZM1055.98 391.406C1044.82 391.406 1035.73 387.984 1028.7 381.141C1021.71 374.297 1018.22 365.18 1018.22 353.789V351.82C1018.22 344.18 1019.7 337.359 1022.65 331.359C1025.6 325.312 1029.77 320.672 1035.16 317.438C1040.6 314.156 1046.79 312.516 1053.73 312.516C1064.13 312.516 1072.31 315.797 1078.27 322.359C1084.27 328.922 1087.27 338.227 1087.27 350.273V358.57H1038.82C1039.48 363.539 1041.45 367.523 1044.73 370.523C1048.05 373.523 1052.25 375.023 1057.31 375.023C1065.14 375.023 1071.26 372.188 1075.66 366.516L1085.65 377.695C1082.6 382.008 1078.48 385.383 1073.27 387.82C1068.07 390.211 1062.3 391.406 1055.98 391.406ZM1053.66 328.969C1049.62 328.969 1046.34 330.328 1043.81 333.047C1041.33 335.766 1039.73 339.656 1039.03 344.719H1067.3V343.102C1067.2 338.602 1065.98 335.133 1063.64 332.695C1061.3 330.211 1057.97 328.969 1053.66 328.969ZM1120.31 390H1099.92V282H1120.31V390ZM1158.56 390H1138.17V313.922H1158.56V390ZM1136.98 294.234C1136.98 291.188 1137.98 288.68 1140 286.711C1142.06 284.742 1144.85 283.758 1148.37 283.758C1151.84 283.758 1154.6 284.742 1156.66 286.711C1158.73 288.68 1159.76 291.188 1159.76 294.234C1159.76 297.328 1158.7 299.859 1156.59 301.828C1154.53 303.797 1151.79 304.781 1148.37 304.781C1144.95 304.781 1142.18 303.797 1140.07 301.828C1138.01 299.859 1136.98 297.328 1136.98 294.234ZM1172.41 351.398C1172.41 339.727 1175.18 330.328 1180.71 323.203C1186.29 316.078 1193.79 312.516 1203.21 312.516C1211.55 312.516 1218.05 315.375 1222.69 321.094L1223.53 313.922H1241.95V387.469C1241.95 394.125 1240.43 399.914 1237.38 404.836C1234.38 409.758 1230.14 413.508 1224.66 416.086C1219.17 418.664 1212.75 419.953 1205.39 419.953C1199.81 419.953 1194.38 418.828 1189.08 416.578C1183.78 414.375 1179.77 411.516 1177.05 408L1186.05 395.625C1191.12 401.297 1197.26 404.133 1204.48 404.133C1209.87 404.133 1214.06 402.68 1217.06 399.773C1220.06 396.914 1221.56 392.836 1221.56 387.539V383.461C1216.88 388.758 1210.71 391.406 1203.07 391.406C1193.93 391.406 1186.52 387.844 1180.85 380.719C1175.23 373.547 1172.41 364.055 1172.41 352.242V351.398ZM1192.73 352.875C1192.73 359.766 1194.12 365.18 1196.88 369.117C1199.65 373.008 1203.45 374.953 1208.27 374.953C1214.46 374.953 1218.89 372.633 1221.56 367.992V336C1218.84 331.359 1214.46 329.039 1208.41 329.039C1203.54 329.039 1199.7 331.031 1196.88 335.016C1194.12 339 1192.73 344.953 1192.73 352.875ZM1277.46 322.219C1282.85 315.75 1289.62 312.516 1297.78 312.516C1314.28 312.516 1322.65 322.102 1322.88 341.273V390H1302.56V341.836C1302.56 337.477 1301.62 334.266 1299.75 332.203C1297.88 330.094 1294.76 329.039 1290.4 329.039C1284.45 329.039 1280.13 331.336 1277.46 335.93V390H1257.14V282H1277.46V322.219ZM1343.77 390V328.828H1332.45V313.922H1343.77V307.453C1343.77 298.922 1346.2 292.312 1351.08 287.625C1356 282.891 1362.87 280.523 1371.68 280.523C1374.49 280.523 1377.94 280.992 1382.02 281.93L1381.8 297.68C1380.12 297.258 1378.05 297.047 1375.62 297.047C1367.98 297.047 1364.16 300.633 1364.16 307.805V313.922H1379.27V328.828H1364.16V390H1343.77ZM1435.38 382.266C1430.37 388.359 1423.43 391.406 1414.57 391.406C1406.41 391.406 1400.18 389.062 1395.87 384.375C1391.6 379.688 1389.42 372.82 1389.33 363.773V313.922H1409.65V363.07C1409.65 370.992 1413.26 374.953 1420.48 374.953C1427.37 374.953 1432.1 372.562 1434.68 367.781V313.922H1455.07V390H1435.95L1435.38 382.266ZM1491.84 390H1471.45V282H1491.84V390ZM1509.7 380.016C1509.7 376.781 1510.78 374.156 1512.94 372.141C1515.14 370.125 1517.88 369.117 1521.16 369.117C1524.49 369.117 1527.23 370.125 1529.39 372.141C1531.59 374.156 1532.7 376.781 1532.7 380.016C1532.7 383.203 1531.62 385.805 1529.46 387.82C1527.3 389.789 1524.54 390.773 1521.16 390.773C1517.84 390.773 1515.09 389.789 1512.94 387.82C1510.78 385.805 1509.7 383.203 1509.7 380.016Z" fill="url(#paint0_linear)"/>
<path d="M444.953 188.164H404.453V230H383.359V127.625H450.016V144.711H404.453V171.148H444.953V188.164ZM482.359 230H461.969V122H482.359V230ZM544.727 222.266C539.711 228.359 532.773 231.406 523.914 231.406C515.758 231.406 509.523 229.062 505.211 224.375C500.945 219.688 498.766 212.82 498.672 203.773V153.922H518.992V203.07C518.992 210.992 522.602 214.953 529.82 214.953C536.711 214.953 541.445 212.562 544.023 207.781V153.922H564.414V230H545.289L544.727 222.266ZM604.07 135.219V153.922H617.078V168.828H604.07V206.797C604.07 209.609 604.609 211.625 605.688 212.844C606.766 214.062 608.828 214.672 611.875 214.672C614.125 214.672 616.117 214.508 617.852 214.18V229.578C613.867 230.797 609.766 231.406 605.547 231.406C591.297 231.406 584.031 224.211 583.75 209.82V168.828H572.641V153.922H583.75V135.219H604.07ZM652.727 135.219V153.922H665.734V168.828H652.727V206.797C652.727 209.609 653.266 211.625 654.344 212.844C655.422 214.062 657.484 214.672 660.531 214.672C662.781 214.672 664.773 214.508 666.508 214.18V229.578C662.523 230.797 658.422 231.406 654.203 231.406C639.953 231.406 632.688 224.211 632.406 209.82V168.828H621.297V153.922H632.406V135.219H652.727ZM712.07 231.406C700.914 231.406 691.82 227.984 684.789 221.141C677.805 214.297 674.312 205.18 674.312 193.789V191.82C674.312 184.18 675.789 177.359 678.742 171.359C681.695 165.312 685.867 160.672 691.258 157.438C696.695 154.156 702.883 152.516 709.82 152.516C720.227 152.516 728.406 155.797 734.359 162.359C740.359 168.922 743.359 178.227 743.359 190.273V198.57H694.914C695.57 203.539 697.539 207.523 700.82 210.523C704.148 213.523 708.344 215.023 713.406 215.023C721.234 215.023 727.352 212.188 731.758 206.516L741.742 217.695C738.695 222.008 734.57 225.383 729.367 227.82C724.164 230.211 718.398 231.406 712.07 231.406ZM709.75 168.969C705.719 168.969 702.438 170.328 699.906 173.047C697.422 175.766 695.828 179.656 695.125 184.719H723.391V183.102C723.297 178.602 722.078 175.133 719.734 172.695C717.391 170.211 714.062 168.969 709.75 168.969ZM797.711 172.977C794.945 172.602 792.508 172.414 790.398 172.414C782.711 172.414 777.672 175.016 775.281 180.219V230H754.961V153.922H774.156L774.719 162.992C778.797 156.008 784.445 152.516 791.664 152.516C793.914 152.516 796.023 152.82 797.992 153.43L797.711 172.977ZM844.75 230V127.625H876.25C885.25 127.625 893.289 129.664 900.367 133.742C907.492 137.773 913.047 143.539 917.031 151.039C921.016 158.492 923.008 166.977 923.008 176.492V181.203C923.008 190.719 921.039 199.18 917.102 206.586C913.211 213.992 907.703 219.734 900.578 223.812C893.453 227.891 885.414 229.953 876.461 230H844.75ZM865.844 144.711V213.055H876.039C884.289 213.055 890.594 210.359 894.953 204.969C899.312 199.578 901.539 191.867 901.633 181.836V176.422C901.633 166.016 899.477 158.141 895.164 152.797C890.852 147.406 884.547 144.711 876.25 144.711H865.844ZM972.086 231.406C960.93 231.406 951.836 227.984 944.805 221.141C937.82 214.297 934.328 205.18 934.328 193.789V191.82C934.328 184.18 935.805 177.359 938.758 171.359C941.711 165.312 945.883 160.672 951.273 157.438C956.711 154.156 962.898 152.516 969.836 152.516C980.242 152.516 988.422 155.797 994.375 162.359C1000.38 168.922 1003.38 178.227 1003.38 190.273V198.57H954.93C955.586 203.539 957.555 207.523 960.836 210.523C964.164 213.523 968.359 215.023 973.422 215.023C981.25 215.023 987.367 212.188 991.773 206.516L1001.76 217.695C998.711 222.008 994.586 225.383 989.383 227.82C984.18 230.211 978.414 231.406 972.086 231.406ZM969.766 168.969C965.734 168.969 962.453 170.328 959.922 173.047C957.438 175.766 955.844 179.656 955.141 184.719H983.406V183.102C983.312 178.602 982.094 175.133 979.75 172.695C977.406 170.211 974.078 168.969 969.766 168.969ZM1042.47 205.18L1056.6 153.922H1077.84L1052.17 230H1032.77L1007.1 153.922H1028.34L1042.47 205.18ZM1120.87 231.406C1109.71 231.406 1100.62 227.984 1093.59 221.141C1086.6 214.297 1083.11 205.18 1083.11 193.789V191.82C1083.11 184.18 1084.59 177.359 1087.54 171.359C1090.49 165.312 1094.66 160.672 1100.05 157.438C1105.49 154.156 1111.68 152.516 1118.62 152.516C1129.02 152.516 1137.2 155.797 1143.16 162.359C1149.16 168.922 1152.16 178.227 1152.16 190.273V198.57H1103.71C1104.37 203.539 1106.34 207.523 1109.62 210.523C1112.95 213.523 1117.14 215.023 1122.2 215.023C1130.03 215.023 1136.15 212.188 1140.55 206.516L1150.54 217.695C1147.49 222.008 1143.37 225.383 1138.16 227.82C1132.96 230.211 1127.2 231.406 1120.87 231.406ZM1118.55 168.969C1114.52 168.969 1111.23 170.328 1108.7 173.047C1106.22 175.766 1104.62 179.656 1103.92 184.719H1132.19V183.102C1132.09 178.602 1130.88 175.133 1128.53 172.695C1126.19 170.211 1122.86 168.969 1118.55 168.969ZM1185.2 230H1164.81V122H1185.2V230ZM1198.84 191.258C1198.84 183.711 1200.3 176.984 1203.2 171.078C1206.11 165.172 1210.28 160.602 1215.72 157.367C1221.2 154.133 1227.55 152.516 1234.77 152.516C1245.04 152.516 1253.41 155.656 1259.88 161.938C1266.39 168.219 1270.02 176.75 1270.77 187.531L1270.91 192.734C1270.91 204.406 1267.66 213.781 1261.14 220.859C1254.62 227.891 1245.88 231.406 1234.91 231.406C1223.95 231.406 1215.18 227.891 1208.62 220.859C1202.1 213.828 1198.84 204.266 1198.84 192.172V191.258ZM1219.16 192.734C1219.16 199.953 1220.52 205.484 1223.24 209.328C1225.96 213.125 1229.85 215.023 1234.91 215.023C1239.84 215.023 1243.68 213.148 1246.45 209.398C1249.21 205.602 1250.59 199.555 1250.59 191.258C1250.59 184.18 1249.21 178.695 1246.45 174.805C1243.68 170.914 1239.79 168.969 1234.77 168.969C1229.8 168.969 1225.96 170.914 1223.24 174.805C1220.52 178.648 1219.16 184.625 1219.16 192.734ZM1351.91 192.664C1351.91 204.383 1349.24 213.781 1343.9 220.859C1338.6 227.891 1331.43 231.406 1322.38 231.406C1314.7 231.406 1308.48 228.734 1303.75 223.391V259.25H1283.43V153.922H1302.27L1302.98 161.375C1307.9 155.469 1314.32 152.516 1322.24 152.516C1331.62 152.516 1338.91 155.984 1344.11 162.922C1349.31 169.859 1351.91 179.422 1351.91 191.609V192.664ZM1331.59 191.188C1331.59 184.109 1330.33 178.648 1327.8 174.805C1325.31 170.961 1321.68 169.039 1316.9 169.039C1310.52 169.039 1306.14 171.477 1303.75 176.352V207.5C1306.23 212.516 1310.66 215.023 1317.04 215.023C1326.74 215.023 1331.59 207.078 1331.59 191.188ZM1383.62 153.922L1384.26 162.43C1389.65 155.82 1396.94 152.516 1406.12 152.516C1415.92 152.516 1422.65 156.383 1426.3 164.117C1431.65 156.383 1439.27 152.516 1449.16 152.516C1457.41 152.516 1463.55 154.93 1467.58 159.758C1471.61 164.539 1473.62 171.758 1473.62 181.414V230H1453.23V181.484C1453.23 177.172 1452.39 174.031 1450.7 172.062C1449.02 170.047 1446.04 169.039 1441.77 169.039C1435.68 169.039 1431.46 171.945 1429.12 177.758L1429.19 230H1408.87V181.555C1408.87 177.148 1408 173.961 1406.27 171.992C1404.53 170.023 1401.58 169.039 1397.41 169.039C1391.64 169.039 1387.47 171.43 1384.89 176.211V230H1364.57V153.922H1383.62ZM1524.32 231.406C1513.16 231.406 1504.07 227.984 1497.04 221.141C1490.05 214.297 1486.56 205.18 1486.56 193.789V191.82C1486.56 184.18 1488.04 177.359 1490.99 171.359C1493.95 165.312 1498.12 160.672 1503.51 157.438C1508.95 154.156 1515.13 152.516 1522.07 152.516C1532.48 152.516 1540.66 155.797 1546.61 162.359C1552.61 168.922 1555.61 178.227 1555.61 190.273V198.57H1507.16C1507.82 203.539 1509.79 207.523 1513.07 210.523C1516.4 213.523 1520.59 215.023 1525.66 215.023C1533.48 215.023 1539.6 212.188 1544.01 206.516L1553.99 217.695C1550.95 222.008 1546.82 225.383 1541.62 227.82C1536.41 230.211 1530.65 231.406 1524.32 231.406ZM1522 168.969C1517.97 168.969 1514.69 170.328 1512.16 173.047C1509.67 175.766 1508.08 179.656 1507.38 184.719H1535.64V183.102C1535.55 178.602 1534.33 175.133 1531.98 172.695C1529.64 170.211 1526.31 168.969 1522 168.969ZM1585.91 153.922L1586.55 162.711C1591.98 155.914 1599.27 152.516 1608.41 152.516C1616.48 152.516 1622.48 154.883 1626.41 159.617C1630.35 164.352 1632.37 171.43 1632.46 180.852V230H1612.14V181.344C1612.14 177.031 1611.2 173.914 1609.33 171.992C1607.45 170.023 1604.34 169.039 1599.98 169.039C1594.26 169.039 1589.97 171.477 1587.11 176.352V230H1566.79V153.922H1585.91ZM1672.26 135.219V153.922H1685.27V168.828H1672.26V206.797C1672.26 209.609 1672.8 211.625 1673.88 212.844C1674.95 214.062 1677.02 214.672 1680.06 214.672C1682.31 214.672 1684.3 214.508 1686.04 214.18V229.578C1682.05 230.797 1677.95 231.406 1673.73 231.406C1659.48 231.406 1652.22 224.211 1651.94 209.82V168.828H1640.83V153.922H1651.94V135.219H1672.26Z" fill="white"/>
<mask id="mask0" mask-type="alpha" maskUnits="userSpaceOnUse" x="113" y="144" width="206" height="224">
<path fill-rule="evenodd" clip-rule="evenodd" d="M264.926 221.407L317.98 193.545C297.868 163.66 263.729 144 224.998 144C163.143 144 113 194.144 113 256C113 317.856 163.143 368 224.998 368C263.896 368 298.163 348.17 318.24 318.067L264.926 290.068C255.308 301.172 241.104 308.197 225.26 308.197C196.289 308.197 172.802 284.71 172.802 255.738C172.802 226.765 196.289 203.279 225.26 203.279C241.104 203.279 255.308 210.303 264.926 221.407Z" fill="#C4C4C4"/>
</mask>
<g mask="url(#mask0)">
<rect x="69.1533" y="127.212" width="318.973" height="264.918" fill="url(#paint1_linear)"/>
<path d="M196.352 327.131L229.175 410.333L376.663 460.993L300.107 266.911L196.352 327.131Z" fill="white"/>
<path d="M195.976 327.11L320.738 320.753L299.71 266.904L195.976 327.11Z" fill="url(#paint2_linear)"/>
</g>
<defs>
<linearGradient id="paint0_linear" x1="518" y1="342" x2="1545.7" y2="359.483" gradientUnits="userSpaceOnUse">
<stop stop-color="#F767E9"/>
<stop offset="1" stop-color="#6349FF"/>
</linearGradient>
<linearGradient id="paint1_linear" x1="206.739" y1="373.245" x2="204.87" y2="49.5732" gradientUnits="userSpaceOnUse">
<stop stop-color="#F767E9"/>
<stop offset="1" stop-color="#6349FF"/>
</linearGradient>
<linearGradient id="paint2_linear" x1="211.692" y1="351.036" x2="293.86" y2="318.62" gradientUnits="userSpaceOnUse">
<stop stop-color="#1A237E" stop-opacity="0.4"/>
<stop offset="1" stop-color="#1A237E" stop-opacity="0"/>
</linearGradient>
</defs>
</svg>
