<svg width="1750" height="427" viewBox="0 0 1750 427" fill="none" xmlns="http://www.w3.org/2000/svg">
<rect y="46" width="1750" height="334" rx="167" fill="white"/>
<path d="M410.441 230.668C410.441 216.176 413.267 203.142 418.918 191.566C424.66 179.991 432.59 171.059 442.707 164.77C452.915 158.48 464.536 155.336 477.57 155.336C497.714 155.336 513.983 162.309 526.379 176.254C538.866 190.199 545.109 208.747 545.109 231.898V233.676C545.109 248.077 542.329 261.02 536.77 272.504C531.301 283.897 523.417 292.784 513.117 299.164C502.909 305.544 491.151 308.734 477.844 308.734C457.792 308.734 441.522 301.762 429.035 287.816C416.639 273.871 410.441 255.414 410.441 232.445V230.668ZM435.871 233.676C435.871 250.082 439.654 263.253 447.219 273.188C454.875 283.122 465.083 288.09 477.844 288.09C490.695 288.09 500.904 283.077 508.469 273.051C516.034 262.934 519.816 248.806 519.816 230.668C519.816 214.444 515.943 201.319 508.195 191.293C500.539 181.176 490.331 176.117 477.57 176.117C465.083 176.117 455.012 181.085 447.355 191.02C439.699 200.954 435.871 215.173 435.871 233.676ZM600.617 158.07L601.301 174.477C612.147 161.716 626.776 155.336 645.188 155.336C665.878 155.336 679.96 163.266 687.434 179.125C692.355 172.016 698.736 166.273 706.574 161.898C714.504 157.523 723.846 155.336 734.602 155.336C767.049 155.336 783.547 172.517 784.094 206.879V306H758.801V208.383C758.801 197.81 756.385 189.926 751.555 184.73C746.724 179.444 738.612 176.801 727.219 176.801C717.831 176.801 710.038 179.626 703.84 185.277C697.642 190.837 694.042 198.357 693.039 207.836V306H667.609V209.066C667.609 187.556 657.082 176.801 636.027 176.801C619.439 176.801 608.091 183.865 601.984 197.992V306H576.691V158.07H600.617ZM947.336 233.676C947.336 256.189 942.186 274.327 931.887 288.09C921.587 301.853 907.642 308.734 890.051 308.734C872.095 308.734 857.967 303.038 847.668 291.645V362.875H822.375V158.07H845.48L846.711 174.477C857.01 161.716 871.32 155.336 889.641 155.336C907.414 155.336 921.451 162.035 931.75 175.434C942.141 188.832 947.336 207.471 947.336 231.352V233.676ZM922.043 230.805C922.043 214.125 918.488 200.954 911.379 191.293C904.27 181.632 894.517 176.801 882.121 176.801C866.809 176.801 855.324 183.591 847.668 197.172V267.855C855.233 281.345 866.809 288.09 882.395 288.09C894.517 288.09 904.133 283.305 911.242 273.734C918.443 264.073 922.043 249.763 922.043 230.805ZM1070.93 306C1069.47 303.083 1068.29 297.888 1067.38 290.414C1055.62 302.628 1041.58 308.734 1025.27 308.734C1010.68 308.734 998.697 304.633 989.309 296.43C980.012 288.135 975.363 277.654 975.363 264.984C975.363 249.581 981.197 237.641 992.863 229.164C1004.62 220.596 1021.12 216.312 1042.36 216.312H1066.96V204.691C1066.96 195.85 1064.32 188.832 1059.04 183.637C1053.75 178.35 1045.96 175.707 1035.66 175.707C1026.63 175.707 1019.07 177.986 1012.96 182.543C1006.85 187.1 1003.8 192.615 1003.8 199.086H978.371C978.371 191.703 980.969 184.594 986.164 177.758C991.451 170.831 998.56 165.362 1007.49 161.352C1016.52 157.341 1026.4 155.336 1037.16 155.336C1054.2 155.336 1067.56 159.62 1077.22 168.188C1086.88 176.664 1091.89 188.376 1092.26 203.324V271.41C1092.26 284.991 1093.99 295.792 1097.45 303.812V306H1070.93ZM1028.96 286.723C1036.89 286.723 1044.41 284.672 1051.52 280.57C1058.62 276.469 1063.77 271.137 1066.96 264.574V234.223H1047.14C1016.15 234.223 1000.66 243.292 1000.66 261.43C1000.66 269.359 1003.3 275.557 1008.59 280.023C1013.87 284.49 1020.66 286.723 1028.96 286.723ZM1155.83 158.07L1156.65 176.664C1167.95 162.445 1182.72 155.336 1200.95 155.336C1232.21 155.336 1247.98 172.973 1248.25 208.246V306H1222.96V208.109C1222.87 197.445 1220.41 189.561 1215.58 184.457C1210.84 179.353 1203.41 176.801 1193.29 176.801C1185.09 176.801 1177.89 178.988 1171.69 183.363C1165.49 187.738 1160.66 193.48 1157.2 200.59V306H1131.91V158.07H1155.83ZM1313.88 306H1288.59V158.07H1313.88V306ZM1286.54 118.832C1286.54 114.73 1287.77 111.267 1290.23 108.441C1292.78 105.616 1296.52 104.203 1301.44 104.203C1306.36 104.203 1310.1 105.616 1312.65 108.441C1315.2 111.267 1316.48 114.73 1316.48 118.832C1316.48 122.934 1315.2 126.352 1312.65 129.086C1310.1 131.82 1306.36 133.188 1301.44 133.188C1296.52 133.188 1292.78 131.82 1290.23 129.086C1287.77 126.352 1286.54 122.934 1286.54 118.832ZM1347.79 230.668C1347.79 216.176 1350.61 203.142 1356.26 191.566C1362 179.991 1369.93 171.059 1380.05 164.77C1390.26 158.48 1401.88 155.336 1414.91 155.336C1435.06 155.336 1451.33 162.309 1463.72 176.254C1476.21 190.199 1482.45 208.747 1482.45 231.898V233.676C1482.45 248.077 1479.67 261.02 1474.11 272.504C1468.64 283.897 1460.76 292.784 1450.46 299.164C1440.25 305.544 1428.49 308.734 1415.19 308.734C1395.14 308.734 1378.87 301.762 1366.38 287.816C1353.98 273.871 1347.79 255.414 1347.79 232.445V230.668ZM1373.21 233.676C1373.21 250.082 1377 263.253 1384.56 273.188C1392.22 283.122 1402.43 288.09 1415.19 288.09C1428.04 288.09 1438.25 283.077 1445.81 273.051C1453.38 262.934 1457.16 248.806 1457.16 230.668C1457.16 214.444 1453.29 201.319 1445.54 191.293C1437.88 181.176 1427.67 176.117 1414.91 176.117C1402.43 176.117 1392.36 181.085 1384.7 191.02C1377.04 200.954 1373.21 215.173 1373.21 233.676ZM1538.1 158.07L1538.92 176.664C1550.22 162.445 1564.99 155.336 1583.21 155.336C1614.48 155.336 1630.25 172.973 1630.52 208.246V306H1605.23V208.109C1605.14 197.445 1602.67 189.561 1597.84 184.457C1593.1 179.353 1585.68 176.801 1575.56 176.801C1567.36 176.801 1560.15 178.988 1553.96 183.363C1547.76 187.738 1542.93 193.48 1539.46 200.59V306H1514.17V158.07H1538.1Z" fill="black"/>
<mask id="mask0" mask-type="alpha" maskUnits="userSpaceOnUse" x="0" y="0" width="399" height="427">
<path fill-rule="evenodd" clip-rule="evenodd" d="M294.829 147.557L397.785 94.4451C358.755 37.4768 292.505 0 217.344 0C97.3082 0 0 95.5872 0 213.5C0 331.413 97.3082 427 217.344 427C292.83 427 359.328 389.199 398.29 331.815L294.829 278.443C276.163 299.61 248.6 313 217.853 313C161.63 313 116.053 268.228 116.053 213C116.053 157.772 161.63 113 217.853 113C248.6 113 276.163 126.39 294.829 147.557Z" fill="#C4C4C4"/>
</mask>
<g mask="url(#mask0)">
<rect x="-85.09" y="-32" width="619" height="505" fill="url(#paint0_linear)"/>
<path d="M161.753 349.096L225.45 507.7L511.667 604.268L363.099 234.3L161.753 349.096Z" fill="#01579B"/>
<path d="M161.022 349.056L403.136 336.935L362.328 234.286L161.022 349.056Z" fill="url(#paint1_linear)"/>
</g>
<defs>
<linearGradient id="paint0_linear" x1="181.91" y1="437" x2="178.41" y2="-180" gradientUnits="userSpaceOnUse">
<stop stop-color="#67B7F7"/>
<stop offset="1" stop-color="#00F0FF"/>
</linearGradient>
<linearGradient id="paint1_linear" x1="191.522" y1="394.663" x2="350.2" y2="330.934" gradientUnits="userSpaceOnUse">
<stop stop-color="#1A237E" stop-opacity="0.4"/>
<stop offset="1" stop-color="#1A237E" stop-opacity="0"/>
</linearGradient>
</defs>
</svg>
