<svg width="427" height="427" viewBox="0 0 427 427" fill="none" xmlns="http://www.w3.org/2000/svg">
<mask id="mask0" mask-type="alpha" maskUnits="userSpaceOnUse" x="37" y="37" width="331" height="355">
<path fill-rule="evenodd" clip-rule="evenodd" d="M282.019 159.628L367.581 115.489C335.145 68.1453 280.087 37 217.624 37C117.868 37 37 116.438 37 214.43C37 312.422 117.868 391.86 217.624 391.86C280.357 391.86 335.62 360.444 368 312.756L282.019 268.401C266.506 285.992 243.6 297.12 218.048 297.12C171.323 297.12 133.446 259.912 133.446 214.014C133.446 168.117 171.323 130.909 218.048 130.909C243.6 130.909 266.506 142.037 282.019 159.628Z" fill="#C4C4C4"/>
</mask>
<g mask="url(#mask0)">
<rect x="-33.7138" y="10.4062" width="514.422" height="419.682" fill="url(#paint0_linear)"/>
<path d="M171.425 327.117L224.361 458.925L462.223 539.179L338.755 231.715L171.425 327.117Z" fill="white"/>
<path d="M170.818 327.083L372.027 317.011L338.114 231.704L170.818 327.083Z" fill="url(#paint1_linear)"/>
</g>
<defs>
<linearGradient id="paint0_linear" x1="188.177" y1="400.17" x2="185.269" y2="-112.59" gradientUnits="userSpaceOnUse">
<stop stop-color="#F767E9"/>
<stop offset="1" stop-color="#6349FF"/>
</linearGradient>
<linearGradient id="paint1_linear" x1="196.165" y1="364.985" x2="328.035" y2="312.024" gradientUnits="userSpaceOnUse">
<stop stop-color="#1A237E" stop-opacity="0.4"/>
<stop offset="1" stop-color="#1A237E" stop-opacity="0"/>
</linearGradient>
</defs>
</svg>
