<svg width="1650" height="427" viewBox="0 0 1650 427" fill="none" xmlns="http://www.w3.org/2000/svg">
<rect width="1650" height="427" fill="#00072F"/>
<path d="M410.441 231.668C410.441 217.176 413.267 204.142 418.918 192.566C424.66 180.991 432.59 172.059 442.707 165.77C452.915 159.48 464.536 156.336 477.57 156.336C497.714 156.336 513.983 163.309 526.379 177.254C538.866 191.199 545.109 209.747 545.109 232.898V234.676C545.109 249.077 542.329 262.02 536.77 273.504C531.301 284.897 523.417 293.784 513.117 300.164C502.909 306.544 491.151 309.734 477.844 309.734C457.792 309.734 441.522 302.762 429.035 288.816C416.639 274.871 410.441 256.414 410.441 233.445V231.668ZM435.871 234.676C435.871 251.082 439.654 264.253 447.219 274.188C454.875 284.122 465.083 289.09 477.844 289.09C490.695 289.09 500.904 284.077 508.469 274.051C516.034 263.934 519.816 249.806 519.816 231.668C519.816 215.444 515.943 202.319 508.195 192.293C500.539 182.176 490.331 177.117 477.57 177.117C465.083 177.117 455.012 182.085 447.355 192.02C439.699 201.954 435.871 216.173 435.871 234.676ZM600.617 159.07L601.301 175.477C612.147 162.716 626.776 156.336 645.188 156.336C665.878 156.336 679.96 164.266 687.434 180.125C692.355 173.016 698.736 167.273 706.574 162.898C714.504 158.523 723.846 156.336 734.602 156.336C767.049 156.336 783.547 173.517 784.094 207.879V307H758.801V209.383C758.801 198.81 756.385 190.926 751.555 185.73C746.724 180.444 738.612 177.801 727.219 177.801C717.831 177.801 710.038 180.626 703.84 186.277C697.642 191.837 694.042 199.357 693.039 208.836V307H667.609V210.066C667.609 188.556 657.082 177.801 636.027 177.801C619.439 177.801 608.091 184.865 601.984 198.992V307H576.691V159.07H600.617ZM947.336 234.676C947.336 257.189 942.186 275.327 931.887 289.09C921.587 302.853 907.642 309.734 890.051 309.734C872.095 309.734 857.967 304.038 847.668 292.645V363.875H822.375V159.07H845.48L846.711 175.477C857.01 162.716 871.32 156.336 889.641 156.336C907.414 156.336 921.451 163.035 931.75 176.434C942.141 189.832 947.336 208.471 947.336 232.352V234.676ZM922.043 231.805C922.043 215.125 918.488 201.954 911.379 192.293C904.27 182.632 894.517 177.801 882.121 177.801C866.809 177.801 855.324 184.591 847.668 198.172V268.855C855.233 282.345 866.809 289.09 882.395 289.09C894.517 289.09 904.133 284.305 911.242 274.734C918.443 265.073 922.043 250.763 922.043 231.805ZM1070.93 307C1069.47 304.083 1068.29 298.888 1067.38 291.414C1055.62 303.628 1041.58 309.734 1025.27 309.734C1010.68 309.734 998.697 305.633 989.309 297.43C980.012 289.135 975.363 278.654 975.363 265.984C975.363 250.581 981.197 238.641 992.863 230.164C1004.62 221.596 1021.12 217.312 1042.36 217.312H1066.96V205.691C1066.96 196.85 1064.32 189.832 1059.04 184.637C1053.75 179.35 1045.96 176.707 1035.66 176.707C1026.63 176.707 1019.07 178.986 1012.96 183.543C1006.85 188.1 1003.8 193.615 1003.8 200.086H978.371C978.371 192.703 980.969 185.594 986.164 178.758C991.451 171.831 998.56 166.362 1007.49 162.352C1016.52 158.341 1026.4 156.336 1037.16 156.336C1054.2 156.336 1067.56 160.62 1077.22 169.188C1086.88 177.664 1091.89 189.376 1092.26 204.324V272.41C1092.26 285.991 1093.99 296.792 1097.45 304.812V307H1070.93ZM1028.96 287.723C1036.89 287.723 1044.41 285.672 1051.52 281.57C1058.62 277.469 1063.77 272.137 1066.96 265.574V235.223H1047.14C1016.15 235.223 1000.66 244.292 1000.66 262.43C1000.66 270.359 1003.3 276.557 1008.59 281.023C1013.87 285.49 1020.66 287.723 1028.96 287.723ZM1155.83 159.07L1156.65 177.664C1167.95 163.445 1182.72 156.336 1200.95 156.336C1232.21 156.336 1247.98 173.973 1248.25 209.246V307H1222.96V209.109C1222.87 198.445 1220.41 190.561 1215.58 185.457C1210.84 180.353 1203.41 177.801 1193.29 177.801C1185.09 177.801 1177.89 179.988 1171.69 184.363C1165.49 188.738 1160.66 194.48 1157.2 201.59V307H1131.91V159.07H1155.83ZM1313.88 307H1288.59V159.07H1313.88V307ZM1286.54 119.832C1286.54 115.73 1287.77 112.267 1290.23 109.441C1292.78 106.616 1296.52 105.203 1301.44 105.203C1306.36 105.203 1310.1 106.616 1312.65 109.441C1315.2 112.267 1316.48 115.73 1316.48 119.832C1316.48 123.934 1315.2 127.352 1312.65 130.086C1310.1 132.82 1306.36 134.188 1301.44 134.188C1296.52 134.188 1292.78 132.82 1290.23 130.086C1287.77 127.352 1286.54 123.934 1286.54 119.832ZM1347.79 231.668C1347.79 217.176 1350.61 204.142 1356.26 192.566C1362 180.991 1369.93 172.059 1380.05 165.77C1390.26 159.48 1401.88 156.336 1414.91 156.336C1435.06 156.336 1451.33 163.309 1463.72 177.254C1476.21 191.199 1482.45 209.747 1482.45 232.898V234.676C1482.45 249.077 1479.67 262.02 1474.11 273.504C1468.64 284.897 1460.76 293.784 1450.46 300.164C1440.25 306.544 1428.49 309.734 1415.19 309.734C1395.14 309.734 1378.87 302.762 1366.38 288.816C1353.98 274.871 1347.79 256.414 1347.79 233.445V231.668ZM1373.21 234.676C1373.21 251.082 1377 264.253 1384.56 274.188C1392.22 284.122 1402.43 289.09 1415.19 289.09C1428.04 289.09 1438.25 284.077 1445.81 274.051C1453.38 263.934 1457.16 249.806 1457.16 231.668C1457.16 215.444 1453.29 202.319 1445.54 192.293C1437.88 182.176 1427.67 177.117 1414.91 177.117C1402.43 177.117 1392.36 182.085 1384.7 192.02C1377.04 201.954 1373.21 216.173 1373.21 234.676ZM1538.1 159.07L1538.92 177.664C1550.22 163.445 1564.99 156.336 1583.21 156.336C1614.48 156.336 1630.25 173.973 1630.52 209.246V307H1605.23V209.109C1605.14 198.445 1602.67 190.561 1597.84 185.457C1593.1 180.353 1585.68 177.801 1575.56 177.801C1567.36 177.801 1560.15 179.988 1553.96 184.363C1547.76 188.738 1542.93 194.48 1539.46 201.59V307H1514.17V159.07H1538.1Z" fill="white"/>
<mask id="mask0" mask-type="alpha" maskUnits="userSpaceOnUse" x="0" y="0" width="399" height="427">
<path fill-rule="evenodd" clip-rule="evenodd" d="M294.829 147.557L397.785 94.4452C358.755 37.4769 292.505 0 217.344 0C97.3082 0 0 95.5872 0 213.5C0 331.413 97.3082 427 217.344 427C292.83 427 359.328 389.198 398.29 331.815L294.829 278.443C276.163 299.61 248.6 313 217.853 313C161.63 313 116.053 268.229 116.053 213C116.053 157.772 161.63 113 217.853 113C248.6 113 276.163 126.39 294.829 147.557Z" fill="#C4C4C4"/>
</mask>
<g mask="url(#mask0)">
<rect x="-85.0895" y="-32.0001" width="619" height="505" fill="url(#paint0_linear)"/>
<path d="M161.753 349.096L225.45 507.699L511.667 604.268L363.099 234.299L161.753 349.096Z" fill="white"/>
<path d="M161.022 349.055L403.136 336.935L362.328 234.285L161.022 349.055Z" fill="url(#paint1_linear)"/>
</g>
<defs>
<linearGradient id="paint0_linear" x1="181.911" y1="437" x2="178.411" y2="-180" gradientUnits="userSpaceOnUse">
<stop stop-color="#F767E9"/>
<stop offset="1" stop-color="#6349FF"/>
</linearGradient>
<linearGradient id="paint1_linear" x1="191.522" y1="394.662" x2="350.2" y2="330.934" gradientUnits="userSpaceOnUse">
<stop stop-color="#1A237E" stop-opacity="0.4"/>
<stop offset="1" stop-color="#1A237E" stop-opacity="0"/>
</linearGradient>
</defs>
</svg>
