<svg width="2495" height="315" viewBox="0 0 2495 315" fill="none" xmlns="http://www.w3.org/2000/svg">
<rect width="2495" height="315" rx="34" fill="#00072F"/>
<mask id="mask0" mask-type="alpha" maskUnits="userSpaceOnUse" x="79" y="39" width="220" height="238">
<path fill-rule="evenodd" clip-rule="evenodd" d="M240.536 119.846L296.385 91.0356C274.963 59.6233 238.89 39 198 39C132.278 39 79 92.2781 79 158C79 223.722 132.278 277 198 277C240.361 277 277.553 254.866 298.64 221.532L240.536 191.558C230.309 203.155 215.207 210.492 198.361 210.492C167.557 210.492 142.585 185.962 142.585 155.702C142.585 125.443 167.557 100.912 198.361 100.912C215.207 100.912 230.309 108.249 240.536 119.846Z" fill="#C4C4C4"/>
</mask>
<g mask="url(#mask0)">
<rect x="32.3798" y="21.4673" width="339.148" height="276.688" fill="url(#paint0_linear)"/>
<path d="M167.624 230.268L202.523 317.166L359.341 370.076L277.941 167.372L167.624 230.268Z" fill="white"/>
<path d="M167.223 230.245L299.876 223.605L277.518 167.363L167.223 230.245Z" fill="url(#paint1_linear)"/>
</g>
<circle cx="435" cy="158" r="86" fill="url(#paint2_linear)"/>
<path d="M458.422 191H411.641V181.719L433.719 158.188C436.75 154.875 438.984 151.984 440.422 149.516C441.891 147.047 442.625 144.703 442.625 142.484C442.625 139.453 441.859 137.078 440.328 135.359C438.797 133.609 436.609 132.734 433.766 132.734C430.703 132.734 428.281 133.797 426.5 135.922C424.75 138.016 423.875 140.781 423.875 144.219H410.281C410.281 140.062 411.266 136.266 413.234 132.828C415.234 129.391 418.047 126.703 421.672 124.766C425.297 122.797 429.406 121.812 434 121.812C441.031 121.812 446.484 123.5 450.359 126.875C454.266 130.25 456.219 135.016 456.219 141.172C456.219 144.547 455.344 147.984 453.594 151.484C451.844 154.984 448.844 159.062 444.594 163.719L429.078 180.078H458.422V191Z" fill="white"/>
<path d="M608.18 212H590.461V109.625H608.18V212ZM644.25 135.922L644.742 144.711C650.367 137.914 657.75 134.516 666.891 134.516C682.734 134.516 690.797 143.586 691.078 161.727V212H673.992V162.711C673.992 157.883 672.938 154.32 670.828 152.023C668.766 149.68 665.367 148.508 660.633 148.508C653.742 148.508 648.609 151.625 645.234 157.859V212H628.148V135.922H644.25ZM751.195 191.328C751.195 188.281 749.93 185.961 747.398 184.367C744.914 182.773 740.766 181.367 734.953 180.148C729.141 178.93 724.289 177.383 720.398 175.508C711.867 171.383 707.602 165.406 707.602 157.578C707.602 151.016 710.367 145.531 715.898 141.125C721.43 136.719 728.461 134.516 736.992 134.516C746.086 134.516 753.422 136.766 759 141.266C764.625 145.766 767.438 151.602 767.438 158.773H750.352C750.352 155.492 749.133 152.773 746.695 150.617C744.258 148.414 741.023 147.312 736.992 147.312C733.242 147.312 730.172 148.18 727.781 149.914C725.438 151.648 724.266 153.969 724.266 156.875C724.266 159.5 725.367 161.539 727.57 162.992C729.773 164.445 734.227 165.922 740.93 167.422C747.633 168.875 752.883 170.633 756.68 172.695C760.523 174.711 763.359 177.148 765.188 180.008C767.062 182.867 768 186.336 768 190.414C768 197.258 765.164 202.812 759.492 207.078C753.82 211.297 746.391 213.406 737.203 213.406C730.969 213.406 725.414 212.281 720.539 210.031C715.664 207.781 711.867 204.688 709.148 200.75C706.43 196.812 705.07 192.57 705.07 188.023H721.664C721.898 192.055 723.422 195.172 726.234 197.375C729.047 199.531 732.773 200.609 737.414 200.609C741.914 200.609 745.336 199.766 747.68 198.078C750.023 196.344 751.195 194.094 751.195 191.328ZM804.352 117.43V135.922H817.781V148.578H804.352V191.047C804.352 193.953 804.914 196.062 806.039 197.375C807.211 198.641 809.273 199.273 812.227 199.273C814.195 199.273 816.188 199.039 818.203 198.57V211.789C814.312 212.867 810.562 213.406 806.953 213.406C793.828 213.406 787.266 206.164 787.266 191.68V148.578H774.75V135.922H787.266V117.43H804.352ZM876.352 212C875.602 210.547 874.945 208.18 874.383 204.898C868.945 210.57 862.289 213.406 854.414 213.406C846.773 213.406 840.539 211.227 835.711 206.867C830.883 202.508 828.469 197.117 828.469 190.695C828.469 182.586 831.469 176.375 837.469 172.062C843.516 167.703 852.141 165.523 863.344 165.523H873.82V160.531C873.82 156.594 872.719 153.453 870.516 151.109C868.312 148.719 864.961 147.523 860.461 147.523C856.57 147.523 853.383 148.508 850.898 150.477C848.414 152.398 847.172 154.859 847.172 157.859H830.086C830.086 153.688 831.469 149.797 834.234 146.188C837 142.531 840.75 139.672 845.484 137.609C850.266 135.547 855.586 134.516 861.445 134.516C870.352 134.516 877.453 136.766 882.75 141.266C888.047 145.719 890.766 152 890.906 160.109V194.422C890.906 201.266 891.867 206.727 893.789 210.805V212H876.352ZM857.578 199.695C860.953 199.695 864.117 198.875 867.07 197.234C870.07 195.594 872.32 193.391 873.82 190.625V176.281H864.609C858.281 176.281 853.523 177.383 850.336 179.586C847.148 181.789 845.555 184.906 845.555 188.938C845.555 192.219 846.633 194.844 848.789 196.812C850.992 198.734 853.922 199.695 857.578 199.695ZM926.977 212H909.891V104H926.977V212ZM963.82 212H946.734V104H963.82V212ZM1000.66 212H983.578V135.922H1000.66V212ZM982.523 116.164C982.523 113.539 983.344 111.359 984.984 109.625C986.672 107.891 989.062 107.023 992.156 107.023C995.25 107.023 997.641 107.891 999.328 109.625C1001.02 111.359 1001.86 113.539 1001.86 116.164C1001.86 118.742 1001.02 120.898 999.328 122.633C997.641 124.32 995.25 125.164 992.156 125.164C989.062 125.164 986.672 124.32 984.984 122.633C983.344 120.898 982.523 118.742 982.523 116.164ZM1035.19 135.922L1035.68 144.711C1041.3 137.914 1048.69 134.516 1057.83 134.516C1073.67 134.516 1081.73 143.586 1082.02 161.727V212H1064.93V162.711C1064.93 157.883 1063.88 154.32 1061.77 152.023C1059.7 149.68 1056.3 148.508 1051.57 148.508C1044.68 148.508 1039.55 151.625 1036.17 157.859V212H1019.09V135.922H1035.19ZM1096.5 173.398C1096.5 161.586 1099.27 152.164 1104.8 145.133C1110.38 138.055 1117.76 134.516 1126.95 134.516C1135.62 134.516 1142.44 137.539 1147.41 143.586L1148.18 135.922H1163.58V209.68C1163.58 219.664 1160.46 227.539 1154.23 233.305C1148.04 239.07 1139.67 241.953 1129.12 241.953C1123.55 241.953 1118.09 240.781 1112.74 238.438C1107.45 236.141 1103.41 233.117 1100.65 229.367L1108.73 219.102C1113.98 225.336 1120.45 228.453 1128.14 228.453C1133.81 228.453 1138.29 226.906 1141.57 223.812C1144.85 220.766 1146.49 216.266 1146.49 210.312V205.18C1141.57 210.664 1135.01 213.406 1126.8 213.406C1117.9 213.406 1110.61 209.867 1104.94 202.789C1099.31 195.711 1096.5 185.914 1096.5 173.398ZM1113.52 174.875C1113.52 182.516 1115.06 188.539 1118.16 192.945C1121.3 197.305 1125.63 199.484 1131.16 199.484C1138.05 199.484 1143.16 196.531 1146.49 190.625V157.156C1143.26 151.391 1138.2 148.508 1131.3 148.508C1125.68 148.508 1121.3 150.734 1118.16 155.188C1115.06 159.641 1113.52 166.203 1113.52 174.875Z" fill="white"/>
<defs>
<linearGradient id="paint0_linear" x1="178.668" y1="278.431" x2="176.75" y2="-59.6214" gradientUnits="userSpaceOnUse">
<stop stop-color="#F467E9"/>
<stop offset="1" stop-color="#9253F8"/>
</linearGradient>
<linearGradient id="paint1_linear" x1="183.934" y1="255.233" x2="270.873" y2="220.317" gradientUnits="userSpaceOnUse">
<stop stop-color="#1A237E" stop-opacity="0.4"/>
<stop offset="1" stop-color="#1A237E" stop-opacity="0"/>
</linearGradient>
<linearGradient id="paint2_linear" x1="435" y1="72" x2="435" y2="244" gradientUnits="userSpaceOnUse">
<stop stop-color="#9253F8"/>
<stop offset="1" stop-color="#F467E9"/>
</linearGradient>
</defs>
</svg>
