<svg width="1848" height="315" viewBox="0 0 1848 315" fill="none" xmlns="http://www.w3.org/2000/svg">
<rect width="1848" height="315" rx="34" fill="#00072F"/>
<mask id="mask0" mask-type="alpha" maskUnits="userSpaceOnUse" x="36" y="39" width="220" height="238">
<path fill-rule="evenodd" clip-rule="evenodd" d="M197.536 119.846L253.385 91.0356C231.963 59.6233 195.89 39 155 39C89.2781 39 36 92.2781 36 158C36 223.722 89.2781 277 155 277C197.361 277 234.553 254.866 255.64 221.532L197.536 191.558C187.309 203.155 172.207 210.492 155.361 210.492C124.557 210.492 99.5849 185.962 99.5849 155.702C99.5849 125.443 124.557 100.912 155.361 100.912C172.207 100.912 187.309 108.249 197.536 119.846Z" fill="#C4C4C4"/>
</mask>
<g mask="url(#mask0)">
<rect x="-10.6202" y="21.4673" width="339.148" height="276.688" fill="url(#paint0_linear)"/>
<path d="M124.624 230.268L159.523 317.166L316.341 370.076L234.941 167.372L124.624 230.268Z" fill="white"/>
<path d="M124.223 230.245L256.877 223.605L234.518 167.363L124.223 230.245Z" fill="url(#paint1_linear)"/>
</g>
<circle cx="392" cy="158" r="86" fill="url(#paint2_linear)"/>
<path d="M402.111 193H388V138.605L371.154 143.83V132.355L400.598 121.809H402.111V193Z" fill="white"/>
<path d="M564.195 173.961V212H546.406V109.625H585.57C597.008 109.625 606.078 112.602 612.781 118.555C619.531 124.508 622.906 132.383 622.906 142.18C622.906 152.211 619.602 160.016 612.992 165.594C606.43 171.172 597.219 173.961 585.359 173.961H564.195ZM564.195 159.688H585.57C591.898 159.688 596.727 158.211 600.055 155.258C603.383 152.258 605.047 147.945 605.047 142.32C605.047 136.789 603.359 132.383 599.984 129.102C596.609 125.773 591.969 124.062 586.062 123.969H564.195V159.688ZM676.695 151.531C674.445 151.156 672.125 150.969 669.734 150.969C661.906 150.969 656.633 153.969 653.914 159.969V212H636.828V135.922H653.141L653.562 144.43C657.688 137.82 663.406 134.516 670.719 134.516C673.156 134.516 675.172 134.844 676.766 135.5L676.695 151.531ZM719.586 213.406C708.758 213.406 699.969 210.008 693.219 203.211C686.516 196.367 683.164 187.273 683.164 175.93V173.82C683.164 166.227 684.617 159.453 687.523 153.5C690.477 147.5 694.602 142.836 699.898 139.508C705.195 136.18 711.102 134.516 717.617 134.516C727.977 134.516 735.969 137.82 741.594 144.43C747.266 151.039 750.102 160.391 750.102 172.484V179.375H700.391C700.906 185.656 702.992 190.625 706.648 194.281C710.352 197.938 714.992 199.766 720.57 199.766C728.398 199.766 734.773 196.602 739.695 190.273L748.906 199.062C745.859 203.609 741.781 207.148 736.672 209.68C731.609 212.164 725.914 213.406 719.586 213.406ZM717.547 148.227C712.859 148.227 709.062 149.867 706.156 153.148C703.297 156.43 701.469 161 700.672 166.859H733.227V165.594C732.852 159.875 731.328 155.562 728.656 152.656C725.984 149.703 722.281 148.227 717.547 148.227ZM803.258 151.531C801.008 151.156 798.688 150.969 796.297 150.969C788.469 150.969 783.195 153.969 780.477 159.969V212H763.391V135.922H779.703L780.125 144.43C784.25 137.82 789.969 134.516 797.281 134.516C799.719 134.516 801.734 134.844 803.328 135.5L803.258 151.531ZM846.148 213.406C835.32 213.406 826.531 210.008 819.781 203.211C813.078 196.367 809.727 187.273 809.727 175.93V173.82C809.727 166.227 811.18 159.453 814.086 153.5C817.039 147.5 821.164 142.836 826.461 139.508C831.758 136.18 837.664 134.516 844.18 134.516C854.539 134.516 862.531 137.82 868.156 144.43C873.828 151.039 876.664 160.391 876.664 172.484V179.375H826.953C827.469 185.656 829.555 190.625 833.211 194.281C836.914 197.938 841.555 199.766 847.133 199.766C854.961 199.766 861.336 196.602 866.258 190.273L875.469 199.062C872.422 203.609 868.344 207.148 863.234 209.68C858.172 212.164 852.477 213.406 846.148 213.406ZM844.109 148.227C839.422 148.227 835.625 149.867 832.719 153.148C829.859 156.43 828.031 161 827.234 166.859H859.789V165.594C859.414 159.875 857.891 155.562 855.219 152.656C852.547 149.703 848.844 148.227 844.109 148.227ZM886.789 173.328C886.789 161.422 889.508 151.977 894.945 144.992C900.383 138.008 907.742 134.516 917.023 134.516C925.508 134.516 932.234 137.492 937.203 143.445L938.188 135.922H953.375V241.25H936.289V205.531C931.32 210.781 924.852 213.406 916.883 213.406C907.789 213.406 900.5 209.867 895.016 202.789C889.531 195.664 886.789 185.844 886.789 173.328ZM903.875 174.805C903.875 182.586 905.398 188.703 908.445 193.156C911.539 197.562 915.805 199.766 921.242 199.766C927.992 199.766 933.008 196.883 936.289 191.117V156.523C933.008 150.992 928.039 148.227 921.383 148.227C915.945 148.227 911.656 150.406 908.516 154.766C905.422 159.125 903.875 165.805 903.875 174.805ZM1017.92 204.547C1012.91 210.453 1005.78 213.406 996.547 213.406C988.297 213.406 982.039 210.992 977.773 206.164C973.555 201.336 971.445 194.352 971.445 185.211V135.922H988.531V185C988.531 194.656 992.539 199.484 1000.55 199.484C1008.85 199.484 1014.45 196.508 1017.36 190.555V135.922H1034.45V212H1018.34L1017.92 204.547ZM1070.02 212H1052.94V135.922H1070.02V212ZM1051.88 116.164C1051.88 113.539 1052.7 111.359 1054.34 109.625C1056.03 107.891 1058.42 107.023 1061.52 107.023C1064.61 107.023 1067 107.891 1068.69 109.625C1070.38 111.359 1071.22 113.539 1071.22 116.164C1071.22 118.742 1070.38 120.898 1068.69 122.633C1067 124.32 1064.61 125.164 1061.52 125.164C1058.42 125.164 1056.03 124.32 1054.34 122.633C1052.7 120.898 1051.88 118.742 1051.88 116.164ZM1131.34 191.328C1131.34 188.281 1130.07 185.961 1127.54 184.367C1125.05 182.773 1120.91 181.367 1115.09 180.148C1109.28 178.93 1104.43 177.383 1100.54 175.508C1092.01 171.383 1087.74 165.406 1087.74 157.578C1087.74 151.016 1090.51 145.531 1096.04 141.125C1101.57 136.719 1108.6 134.516 1117.13 134.516C1126.23 134.516 1133.56 136.766 1139.14 141.266C1144.77 145.766 1147.58 151.602 1147.58 158.773H1130.49C1130.49 155.492 1129.27 152.773 1126.84 150.617C1124.4 148.414 1121.16 147.312 1117.13 147.312C1113.38 147.312 1110.31 148.18 1107.92 149.914C1105.58 151.648 1104.41 153.969 1104.41 156.875C1104.41 159.5 1105.51 161.539 1107.71 162.992C1109.91 164.445 1114.37 165.922 1121.07 167.422C1127.77 168.875 1133.02 170.633 1136.82 172.695C1140.66 174.711 1143.5 177.148 1145.33 180.008C1147.2 182.867 1148.14 186.336 1148.14 190.414C1148.14 197.258 1145.3 202.812 1139.63 207.078C1133.96 211.297 1126.53 213.406 1117.34 213.406C1111.11 213.406 1105.55 212.281 1100.68 210.031C1095.8 207.781 1092.01 204.688 1089.29 200.75C1086.57 196.812 1085.21 192.57 1085.21 188.023H1101.8C1102.04 192.055 1103.56 195.172 1106.38 197.375C1109.19 199.531 1112.91 200.609 1117.55 200.609C1122.05 200.609 1125.48 199.766 1127.82 198.078C1130.16 196.344 1131.34 194.094 1131.34 191.328ZM1181.26 212H1164.17V135.922H1181.26V212ZM1163.12 116.164C1163.12 113.539 1163.94 111.359 1165.58 109.625C1167.27 107.891 1169.66 107.023 1172.75 107.023C1175.84 107.023 1178.23 107.891 1179.92 109.625C1181.61 111.359 1182.45 113.539 1182.45 116.164C1182.45 118.742 1181.61 120.898 1179.92 122.633C1178.23 124.32 1175.84 125.164 1172.75 125.164C1169.66 125.164 1167.27 124.32 1165.58 122.633C1163.94 120.898 1163.12 118.742 1163.12 116.164ZM1221.34 117.43V135.922H1234.77V148.578H1221.34V191.047C1221.34 193.953 1221.9 196.062 1223.02 197.375C1224.2 198.641 1226.26 199.273 1229.21 199.273C1231.18 199.273 1233.17 199.039 1235.19 198.57V211.789C1231.3 212.867 1227.55 213.406 1223.94 213.406C1210.81 213.406 1204.25 206.164 1204.25 191.68V148.578H1191.73V135.922H1204.25V117.43H1221.34ZM1281.38 213.406C1270.55 213.406 1261.77 210.008 1255.02 203.211C1248.31 196.367 1244.96 187.273 1244.96 175.93V173.82C1244.96 166.227 1246.41 159.453 1249.32 153.5C1252.27 147.5 1256.4 142.836 1261.7 139.508C1266.99 136.18 1272.9 134.516 1279.41 134.516C1289.77 134.516 1297.77 137.82 1303.39 144.43C1309.06 151.039 1311.9 160.391 1311.9 172.484V179.375H1262.19C1262.7 185.656 1264.79 190.625 1268.45 194.281C1272.15 197.938 1276.79 199.766 1282.37 199.766C1290.2 199.766 1296.57 196.602 1301.49 190.273L1310.7 199.062C1307.66 203.609 1303.58 207.148 1298.47 209.68C1293.41 212.164 1287.71 213.406 1281.38 213.406ZM1279.34 148.227C1274.66 148.227 1270.86 149.867 1267.95 153.148C1265.09 156.43 1263.27 161 1262.47 166.859H1295.02V165.594C1294.65 159.875 1293.12 155.562 1290.45 152.656C1287.78 149.703 1284.08 148.227 1279.34 148.227ZM1367.87 191.328C1367.87 188.281 1366.6 185.961 1364.07 184.367C1361.59 182.773 1357.44 181.367 1351.62 180.148C1345.81 178.93 1340.96 177.383 1337.07 175.508C1328.54 171.383 1324.27 165.406 1324.27 157.578C1324.27 151.016 1327.04 145.531 1332.57 141.125C1338.1 136.719 1345.13 134.516 1353.66 134.516C1362.76 134.516 1370.09 136.766 1375.67 141.266C1381.3 145.766 1384.11 151.602 1384.11 158.773H1367.02C1367.02 155.492 1365.8 152.773 1363.37 150.617C1360.93 148.414 1357.7 147.312 1353.66 147.312C1349.91 147.312 1346.84 148.18 1344.45 149.914C1342.11 151.648 1340.94 153.969 1340.94 156.875C1340.94 159.5 1342.04 161.539 1344.24 162.992C1346.45 164.445 1350.9 165.922 1357.6 167.422C1364.3 168.875 1369.55 170.633 1373.35 172.695C1377.2 174.711 1380.03 177.148 1381.86 180.008C1383.73 182.867 1384.67 186.336 1384.67 190.414C1384.67 197.258 1381.84 202.812 1376.16 207.078C1370.49 211.297 1363.06 213.406 1353.88 213.406C1347.64 213.406 1342.09 212.281 1337.21 210.031C1332.34 207.781 1328.54 204.688 1325.82 200.75C1323.1 196.812 1321.74 192.57 1321.74 188.023H1338.34C1338.57 192.055 1340.09 195.172 1342.91 197.375C1345.72 199.531 1349.45 200.609 1354.09 200.609C1358.59 200.609 1362.01 199.766 1364.35 198.078C1366.7 196.344 1367.87 194.094 1367.87 191.328Z" fill="white"/>
<defs>
<linearGradient id="paint0_linear" x1="135.668" y1="278.431" x2="133.75" y2="-59.6214" gradientUnits="userSpaceOnUse">
<stop stop-color="#F467E9"/>
<stop offset="1" stop-color="#9253F8"/>
</linearGradient>
<linearGradient id="paint1_linear" x1="140.934" y1="255.233" x2="227.873" y2="220.317" gradientUnits="userSpaceOnUse">
<stop stop-color="#1A237E" stop-opacity="0.4"/>
<stop offset="1" stop-color="#1A237E" stop-opacity="0"/>
</linearGradient>
<linearGradient id="paint2_linear" x1="392" y1="72" x2="392" y2="244" gradientUnits="userSpaceOnUse">
<stop stop-color="#9253F8"/>
<stop offset="1" stop-color="#F467E9"/>
</linearGradient>
</defs>
</svg>
