<svg width="2495" height="315" viewBox="0 0 2495 315" fill="none" xmlns="http://www.w3.org/2000/svg">
<rect width="2495" height="315" rx="34" fill="#00072F"/>
<mask id="mask0" mask-type="alpha" maskUnits="userSpaceOnUse" x="79" y="39" width="220" height="238">
<path fill-rule="evenodd" clip-rule="evenodd" d="M240.536 119.846L296.385 91.0356C274.963 59.6233 238.89 39 198 39C132.278 39 79 92.2781 79 158C79 223.722 132.278 277 198 277C240.361 277 277.553 254.866 298.64 221.532L240.536 191.558C230.309 203.155 215.207 210.492 198.361 210.492C167.557 210.492 142.585 185.962 142.585 155.702C142.585 125.443 167.557 100.912 198.361 100.912C215.207 100.912 230.309 108.249 240.536 119.846Z" fill="#C4C4C4"/>
</mask>
<g mask="url(#mask0)">
<rect x="32.3798" y="21.4673" width="339.148" height="276.688" fill="url(#paint0_linear)"/>
<path d="M167.624 230.268L202.523 317.166L359.341 370.076L277.941 167.372L167.624 230.268Z" fill="white"/>
<path d="M167.223 230.245L299.876 223.605L277.518 167.363L167.223 230.245Z" fill="url(#paint1_linear)"/>
</g>
<circle cx="435" cy="158" r="86" fill="url(#paint2_linear)"/>
<path d="M458.422 191H411.641V181.719L433.719 158.188C436.75 154.875 438.984 151.984 440.422 149.516C441.891 147.047 442.625 144.703 442.625 142.484C442.625 139.453 441.859 137.078 440.328 135.359C438.797 133.609 436.609 132.734 433.766 132.734C430.703 132.734 428.281 133.797 426.5 135.922C424.75 138.016 423.875 140.781 423.875 144.219H410.281C410.281 140.062 411.266 136.266 413.234 132.828C415.234 129.391 418.047 126.703 421.672 124.766C425.297 122.797 429.406 121.812 434 121.812C441.031 121.812 446.484 123.5 450.359 126.875C454.266 130.25 456.219 135.016 456.219 141.172C456.219 144.547 455.344 147.984 453.594 151.484C451.844 154.984 448.844 159.062 444.594 163.719L429.078 180.078H458.422V191Z" fill="white"/>
<path d="M608.18 212H590.461V109.625H608.18V212ZM644.25 135.922L644.742 144.711C650.367 137.914 657.75 134.516 666.891 134.516C682.734 134.516 690.797 143.586 691.078 161.727V212H673.992V162.711C673.992 157.883 672.938 154.32 670.828 152.023C668.766 149.68 665.367 148.508 660.633 148.508C653.742 148.508 648.609 151.625 645.234 157.859V212H628.148V135.922H644.25ZM751.195 191.328C751.195 188.281 749.93 185.961 747.398 184.367C744.914 182.773 740.766 181.367 734.953 180.148C729.141 178.93 724.289 177.383 720.398 175.508C711.867 171.383 707.602 165.406 707.602 157.578C707.602 151.016 710.367 145.531 715.898 141.125C721.43 136.719 728.461 134.516 736.992 134.516C746.086 134.516 753.422 136.766 759 141.266C764.625 145.766 767.438 151.602 767.438 158.773H750.352C750.352 155.492 749.133 152.773 746.695 150.617C744.258 148.414 741.023 147.312 736.992 147.312C733.242 147.312 730.172 148.18 727.781 149.914C725.438 151.648 724.266 153.969 724.266 156.875C724.266 159.5 725.367 161.539 727.57 162.992C729.773 164.445 734.227 165.922 740.93 167.422C747.633 168.875 752.883 170.633 756.68 172.695C760.523 174.711 763.359 177.148 765.188 180.008C767.062 182.867 768 186.336 768 190.414C768 197.258 765.164 202.812 759.492 207.078C753.82 211.297 746.391 213.406 737.203 213.406C730.969 213.406 725.414 212.281 720.539 210.031C715.664 207.781 711.867 204.688 709.148 200.75C706.43 196.812 705.07 192.57 705.07 188.023H721.664C721.898 192.055 723.422 195.172 726.234 197.375C729.047 199.531 732.773 200.609 737.414 200.609C741.914 200.609 745.336 199.766 747.68 198.078C750.023 196.344 751.195 194.094 751.195 191.328ZM804.352 117.43V135.922H817.781V148.578H804.352V191.047C804.352 193.953 804.914 196.062 806.039 197.375C807.211 198.641 809.273 199.273 812.227 199.273C814.195 199.273 816.188 199.039 818.203 198.57V211.789C814.312 212.867 810.562 213.406 806.953 213.406C793.828 213.406 787.266 206.164 787.266 191.68V148.578H774.75V135.922H787.266V117.43H804.352ZM876.352 212C875.602 210.547 874.945 208.18 874.383 204.898C868.945 210.57 862.289 213.406 854.414 213.406C846.773 213.406 840.539 211.227 835.711 206.867C830.883 202.508 828.469 197.117 828.469 190.695C828.469 182.586 831.469 176.375 837.469 172.062C843.516 167.703 852.141 165.523 863.344 165.523H873.82V160.531C873.82 156.594 872.719 153.453 870.516 151.109C868.312 148.719 864.961 147.523 860.461 147.523C856.57 147.523 853.383 148.508 850.898 150.477C848.414 152.398 847.172 154.859 847.172 157.859H830.086C830.086 153.688 831.469 149.797 834.234 146.188C837 142.531 840.75 139.672 845.484 137.609C850.266 135.547 855.586 134.516 861.445 134.516C870.352 134.516 877.453 136.766 882.75 141.266C888.047 145.719 890.766 152 890.906 160.109V194.422C890.906 201.266 891.867 206.727 893.789 210.805V212H876.352ZM857.578 199.695C860.953 199.695 864.117 198.875 867.07 197.234C870.07 195.594 872.32 193.391 873.82 190.625V176.281H864.609C858.281 176.281 853.523 177.383 850.336 179.586C847.148 181.789 845.555 184.906 845.555 188.938C845.555 192.219 846.633 194.844 848.789 196.812C850.992 198.734 853.922 199.695 857.578 199.695ZM926.977 212H909.891V104H926.977V212ZM963.82 212H946.734V104H963.82V212ZM1000.66 212H983.578V135.922H1000.66V212ZM982.523 116.164C982.523 113.539 983.344 111.359 984.984 109.625C986.672 107.891 989.062 107.023 992.156 107.023C995.25 107.023 997.641 107.891 999.328 109.625C1001.02 111.359 1001.86 113.539 1001.86 116.164C1001.86 118.742 1001.02 120.898 999.328 122.633C997.641 124.32 995.25 125.164 992.156 125.164C989.062 125.164 986.672 124.32 984.984 122.633C983.344 120.898 982.523 118.742 982.523 116.164ZM1035.19 135.922L1035.68 144.711C1041.3 137.914 1048.69 134.516 1057.83 134.516C1073.67 134.516 1081.73 143.586 1082.02 161.727V212H1064.93V162.711C1064.93 157.883 1063.88 154.32 1061.77 152.023C1059.7 149.68 1056.3 148.508 1051.57 148.508C1044.68 148.508 1039.55 151.625 1036.17 157.859V212H1019.09V135.922H1035.19ZM1096.5 173.398C1096.5 161.586 1099.27 152.164 1104.8 145.133C1110.38 138.055 1117.76 134.516 1126.95 134.516C1135.62 134.516 1142.44 137.539 1147.41 143.586L1148.18 135.922H1163.58V209.68C1163.58 219.664 1160.46 227.539 1154.23 233.305C1148.04 239.07 1139.67 241.953 1129.12 241.953C1123.55 241.953 1118.09 240.781 1112.74 238.438C1107.45 236.141 1103.41 233.117 1100.65 229.367L1108.73 219.102C1113.98 225.336 1120.45 228.453 1128.14 228.453C1133.81 228.453 1138.29 226.906 1141.57 223.812C1144.85 220.766 1146.49 216.266 1146.49 210.312V205.18C1141.57 210.664 1135.01 213.406 1126.8 213.406C1117.9 213.406 1110.61 209.867 1104.94 202.789C1099.31 195.711 1096.5 185.914 1096.5 173.398ZM1113.52 174.875C1113.52 182.516 1115.06 188.539 1118.16 192.945C1121.3 197.305 1125.63 199.484 1131.16 199.484C1138.05 199.484 1143.16 196.531 1146.49 190.625V157.156C1143.26 151.391 1138.2 148.508 1131.3 148.508C1125.68 148.508 1121.3 150.734 1118.16 155.188C1115.06 159.641 1113.52 166.203 1113.52 174.875Z" fill="white"/>
<path d="M1883.98 107.654L1937.94 100.324L1937.96 152.236L1884.03 152.542L1883.98 107.654ZM1937.92 158.218L1937.96 210.176L1884.02 202.78L1884.02 157.87L1937.92 158.218ZM1944.46 99.3656L2016 88.9509V151.576L1944.46 152.143V99.3656ZM2016.02 158.706L2016 221.049L1944.46 210.978L1944.36 158.59L2016.02 158.706Z" fill="white"/>
<path d="M2155.97 131.727V130.587L2152.43 130.83C2151.42 130.893 2150.67 131.107 2150.16 131.467C2149.66 131.83 2149.4 132.333 2149.4 132.977C2149.4 133.603 2149.65 134.103 2150.16 134.473C2150.66 134.847 2151.33 135.03 2152.17 135.03C2152.71 135.03 2153.21 134.947 2153.67 134.783C2154.14 134.62 2154.54 134.39 2154.88 134.097C2155.22 133.807 2155.49 133.46 2155.68 133.057C2155.87 132.653 2155.97 132.21 2155.97 131.727ZM2149 85.8333C2110.4 85.8333 2079.83 116.403 2079.83 155C2079.83 193.6 2110.4 224.167 2149 224.167C2187.6 224.167 2218.17 193.6 2218.17 155C2218.17 116.403 2187.6 85.8333 2149 85.8333ZM2162.43 126.83C2162.75 125.913 2163.21 125.127 2163.81 124.473C2164.41 123.82 2165.12 123.317 2165.96 122.963C2166.8 122.61 2167.74 122.433 2168.77 122.433C2169.7 122.433 2170.54 122.573 2171.29 122.85C2172.04 123.127 2172.68 123.5 2173.21 123.97C2173.75 124.44 2174.18 124.987 2174.49 125.613C2174.8 126.24 2174.99 126.903 2175.05 127.6H2172.28C2172.21 127.217 2172.08 126.857 2171.9 126.527C2171.72 126.197 2171.48 125.91 2171.19 125.667C2170.89 125.423 2170.55 125.233 2170.15 125.097C2169.75 124.957 2169.3 124.89 2168.8 124.89C2168.21 124.89 2167.67 125.01 2167.2 125.247C2166.72 125.483 2166.31 125.82 2165.97 126.253C2165.63 126.687 2165.36 127.217 2165.18 127.837C2164.99 128.46 2164.89 129.15 2164.89 129.91C2164.89 130.697 2164.99 131.403 2165.18 132.023C2165.36 132.647 2165.63 133.17 2165.98 133.6C2166.32 134.03 2166.74 134.36 2167.22 134.587C2167.7 134.813 2168.24 134.93 2168.82 134.93C2169.77 134.93 2170.54 134.707 2171.14 134.26C2171.74 133.813 2172.13 133.16 2172.31 132.3H2175.09C2175.01 133.06 2174.8 133.753 2174.46 134.38C2174.12 135.007 2173.68 135.54 2173.14 135.983C2172.59 136.427 2171.96 136.77 2171.22 137.01C2170.49 137.25 2169.68 137.373 2168.81 137.373C2167.77 137.373 2166.83 137.2 2165.99 136.857C2165.15 136.513 2164.42 136.017 2163.82 135.373C2163.22 134.73 2162.76 133.947 2162.43 133.023C2162.11 132.1 2161.94 131.063 2161.94 129.907C2161.94 128.777 2162.1 127.75 2162.43 126.83V126.83ZM2122.92 122.623H2125.7V125.093H2125.75C2125.92 124.683 2126.14 124.313 2126.42 123.993C2126.69 123.67 2127 123.397 2127.36 123.167C2127.72 122.937 2128.12 122.763 2128.54 122.643C2128.97 122.523 2129.43 122.463 2129.9 122.463C2130.92 122.463 2131.78 122.707 2132.48 123.193C2133.19 123.68 2133.69 124.38 2133.98 125.293H2134.05C2134.24 124.853 2134.48 124.46 2134.79 124.113C2135.09 123.767 2135.44 123.467 2135.83 123.22C2136.23 122.973 2136.66 122.787 2137.13 122.657C2137.6 122.527 2138.09 122.463 2138.61 122.463C2139.33 122.463 2139.98 122.577 2140.57 122.807C2141.15 123.037 2141.65 123.357 2142.07 123.773C2142.49 124.19 2142.81 124.697 2143.03 125.29C2143.25 125.883 2143.37 126.543 2143.37 127.27V137.207H2140.47V127.967C2140.47 127.01 2140.22 126.267 2139.73 125.743C2139.24 125.22 2138.53 124.957 2137.62 124.957C2137.17 124.957 2136.76 125.037 2136.39 125.193C2136.02 125.35 2135.7 125.57 2135.43 125.853C2135.16 126.133 2134.95 126.473 2134.8 126.867C2134.65 127.26 2134.57 127.69 2134.57 128.157V137.207H2131.71V127.727C2131.71 127.307 2131.64 126.927 2131.51 126.587C2131.38 126.247 2131.2 125.957 2130.96 125.713C2130.72 125.47 2130.42 125.287 2130.08 125.157C2129.73 125.027 2129.34 124.96 2128.91 124.96C2128.47 124.96 2128.05 125.043 2127.67 125.21C2127.29 125.377 2126.96 125.607 2126.69 125.9C2126.42 126.197 2126.2 126.543 2126.05 126.947C2125.91 127.347 2125.67 127.787 2125.67 128.26V137.203H2122.92V122.623V122.623ZM2129.23 192.42C2116.48 192.42 2108.48 183.56 2108.48 169.42C2108.48 155.28 2116.48 146.39 2129.23 146.39C2141.98 146.39 2149.94 155.28 2149.94 169.42C2149.94 183.557 2141.98 192.42 2129.23 192.42V192.42ZM2152.83 137.17C2152.36 137.29 2151.88 137.35 2151.39 137.35C2150.66 137.35 2150 137.247 2149.4 137.04C2148.79 136.833 2148.27 136.543 2147.84 136.167C2147.41 135.79 2147.07 135.337 2146.83 134.803C2146.58 134.27 2146.46 133.677 2146.46 133.023C2146.46 131.743 2146.94 130.743 2147.89 130.023C2148.85 129.303 2150.23 128.883 2152.04 128.767L2155.97 128.54V127.413C2155.97 126.573 2155.7 125.93 2155.17 125.493C2154.64 125.057 2153.88 124.837 2152.91 124.837C2152.51 124.837 2152.14 124.887 2151.8 124.983C2151.46 125.083 2151.16 125.223 2150.9 125.407C2150.64 125.59 2150.43 125.81 2150.26 126.067C2150.09 126.32 2149.97 126.607 2149.91 126.92H2147.18C2147.2 126.277 2147.36 125.68 2147.66 125.133C2147.96 124.587 2148.37 124.113 2148.88 123.71C2149.4 123.307 2150 122.993 2150.7 122.77C2151.4 122.547 2152.16 122.433 2152.99 122.433C2153.87 122.433 2154.68 122.543 2155.4 122.77C2156.12 122.997 2156.73 123.313 2157.24 123.73C2157.75 124.147 2158.15 124.647 2158.42 125.233C2158.7 125.82 2158.84 126.477 2158.84 127.2V137.203H2156.06V134.773H2155.99C2155.79 135.167 2155.53 135.523 2155.21 135.84C2154.89 136.157 2154.53 136.43 2154.14 136.653C2153.74 136.877 2153.3 137.05 2152.83 137.17V137.17ZM2171.18 192.42C2161.45 192.42 2154.84 187.327 2154.38 179.33H2160.71C2161.21 183.9 2165.62 186.927 2171.67 186.927C2177.48 186.927 2181.65 183.9 2181.65 179.763C2181.65 176.183 2179.11 174.02 2173.25 172.54L2167.54 171.12C2159.32 169.083 2155.59 165.347 2155.59 159.203C2155.59 151.64 2162.2 146.39 2171.61 146.39C2180.81 146.39 2187.23 151.67 2187.48 159.263H2181.21C2180.78 154.693 2177.05 151.883 2171.49 151.883C2165.96 151.883 2162.13 154.723 2162.13 158.83C2162.13 162.07 2164.54 163.987 2170.41 165.467L2175.22 166.67C2184.39 168.893 2188.16 172.507 2188.16 178.99C2188.16 187.263 2181.61 192.42 2171.18 192.42V192.42ZM2129.23 152.067C2120.49 152.067 2115.03 158.767 2115.03 169.417C2115.03 180.037 2120.49 186.737 2129.23 186.737C2137.93 186.737 2143.43 180.037 2143.43 169.417C2143.43 158.767 2137.93 152.067 2129.23 152.067V152.067Z" fill="white"/>
<path d="M2335.73 125.574C2335.73 126.023 2335.29 126.023 2335.29 126.023H2334.84C2334.39 126.023 2334.39 125.574 2333.94 125.125C2333.94 125.125 2333.49 124.677 2333.49 124.228C2333.49 123.779 2333.49 123.779 2333.94 123.779L2334.84 124.228C2335.29 124.677 2335.73 125.125 2335.73 125.574ZM2327.66 121.087C2327.66 118.843 2326.76 117.497 2325.41 117.497C2325.41 117.497 2325.41 117.946 2324.96 117.946V118.843H2326.31C2326.31 119.741 2326.76 120.19 2326.76 121.087H2327.66ZM2343.36 118.843C2344.26 118.843 2344.71 119.741 2345.16 121.087H2346.05C2345.61 120.638 2345.61 120.19 2345.61 119.741C2345.61 119.292 2345.61 118.843 2345.16 118.395C2344.71 117.946 2344.26 117.497 2343.81 117.497C2343.81 117.497 2343.36 117.946 2342.91 117.946C2342.91 118.395 2343.36 118.395 2343.36 118.843ZM2329.9 126.023C2329.45 126.023 2329.45 126.023 2329.45 125.574C2329.45 125.125 2329.45 124.677 2329.9 124.228C2330.8 124.228 2331.25 123.779 2331.25 123.779C2331.7 123.779 2331.7 124.228 2331.7 124.228C2331.7 124.677 2331.25 125.125 2330.35 126.023H2329.9ZM2324.96 125.574C2323.17 124.677 2322.72 123.331 2322.72 121.087C2322.72 119.741 2322.72 118.843 2323.62 117.946C2324.07 117.048 2324.96 116.6 2325.86 116.6C2326.76 116.6 2327.21 117.048 2328.11 117.946C2328.55 119.292 2329 120.638 2329 121.984V122.433V122.882H2329.45V122.433C2329.9 122.433 2329.9 121.536 2329.9 119.741C2329.9 118.395 2329.9 117.048 2329 115.702C2328.11 114.356 2327.21 113.459 2325.41 113.459C2324.07 113.459 2322.72 114.356 2322.27 115.702C2321.37 117.497 2321.2 118.843 2321.2 121.087C2321.2 122.882 2321.82 124.677 2323.62 126.472C2324.07 126.023 2324.52 126.023 2324.96 125.574ZM2381.05 188.843C2381.5 188.843 2381.5 188.664 2381.5 188.26C2381.5 187.273 2381.05 186.106 2379.71 184.805C2378.36 183.459 2376.12 182.606 2373.43 182.247C2372.98 182.202 2372.53 182.202 2372.53 182.202C2372.08 182.113 2372.08 182.113 2371.63 182.113C2371.18 182.068 2370.29 181.978 2369.84 181.888C2371.18 177.715 2371.63 174.036 2371.63 170.805C2371.63 166.318 2370.73 163.177 2368.94 160.484C2367.14 157.792 2365.35 156.446 2363.11 155.997C2362.66 156.446 2362.66 156.446 2362.66 156.895C2364.9 157.792 2367.14 159.587 2368.49 162.279C2369.84 165.42 2370.29 168.113 2370.29 171.254C2370.29 173.766 2369.84 177.491 2368.04 182.247C2366.25 182.965 2364.45 184.625 2363.11 187.228C2363.11 187.632 2363.11 187.856 2363.55 187.856C2363.55 187.856 2364 187.452 2364.45 186.69C2365.35 185.927 2365.8 185.164 2366.7 184.401C2368.04 183.638 2368.94 183.234 2370.29 183.234C2372.53 183.234 2374.77 183.548 2376.12 184.177C2377.91 184.76 2378.81 185.388 2379.26 186.106C2379.71 186.779 2380.16 187.407 2380.61 187.991C2380.61 188.574 2381.05 188.843 2381.05 188.843V188.843ZM2339.77 123.779C2339.32 123.331 2339.32 122.433 2339.32 121.536C2339.32 119.741 2339.32 118.843 2340.22 117.497C2341.12 116.6 2342.02 116.151 2342.91 116.151C2344.26 116.151 2345.16 117.048 2346.05 117.946C2346.5 119.292 2346.95 120.19 2346.95 121.536C2346.95 123.779 2346.05 125.125 2344.26 125.574C2344.26 125.574 2344.71 126.023 2345.16 126.023C2346.05 126.023 2346.5 126.472 2347.4 126.92C2347.85 124.228 2348.3 122.433 2348.3 120.19C2348.3 117.497 2347.85 115.702 2346.95 114.356C2345.61 113.01 2344.26 112.561 2342.46 112.561C2341.12 112.561 2339.77 113.01 2338.43 113.907C2337.53 115.254 2337.08 116.151 2337.08 117.497C2337.08 119.741 2337.53 121.536 2338.43 123.331C2338.87 123.331 2339.32 123.779 2339.77 123.779ZM2345.16 130.959C2339.32 134.997 2334.84 136.792 2331.25 136.792C2328.11 136.792 2324.96 135.446 2322.27 133.202C2322.72 134.1 2323.17 134.997 2323.62 135.446L2326.31 138.138C2328.11 139.933 2330.35 140.831 2332.59 140.831C2335.73 140.831 2339.32 139.036 2343.81 135.895L2347.85 133.202C2348.75 132.305 2349.64 131.407 2349.64 130.061C2349.64 129.613 2349.64 129.164 2349.2 129.164C2348.75 128.266 2346.5 126.92 2342.02 125.574C2337.98 123.779 2334.84 122.882 2333.04 122.882C2331.7 122.882 2329.45 123.779 2326.31 125.574C2323.62 127.369 2321.82 129.164 2321.82 130.959C2321.82 130.959 2322.27 131.407 2322.72 132.305C2325.41 134.548 2328.11 135.895 2330.8 135.895C2334.39 135.895 2338.87 134.1 2344.71 129.613V130.51C2345.16 130.51 2345.16 130.959 2345.16 130.959ZM2355.48 221.6C2357.27 224.974 2360.41 226.67 2364 226.67C2364.9 226.67 2365.8 226.536 2366.7 226.266C2367.59 226.087 2368.49 225.773 2368.94 225.414C2369.39 225.1 2369.84 224.786 2370.29 224.427C2371.18 224.113 2371.18 223.888 2371.63 223.664L2379.26 217.068C2381.05 215.636 2382.85 214.384 2385.09 213.298C2386.89 212.222 2388.68 211.504 2389.58 211.1C2390.93 210.741 2391.82 210.202 2392.72 209.484C2393.17 208.811 2393.62 207.959 2393.62 206.882C2393.62 205.581 2392.72 204.593 2391.82 203.875C2390.93 203.157 2390.03 202.664 2389.13 202.35C2388.23 202.036 2387.34 201.318 2385.99 200.106C2385.09 198.94 2384.2 197.324 2383.75 195.215L2383.3 192.613C2382.85 191.401 2382.85 190.504 2382.4 190.01C2382.4 189.875 2382.4 189.831 2381.95 189.831C2381.5 189.831 2380.61 190.234 2380.16 190.997C2379.26 191.76 2378.36 192.613 2377.46 193.51C2377.02 194.407 2375.67 195.215 2374.77 195.978C2373.43 196.741 2372.08 197.145 2371.18 197.145C2367.59 197.145 2365.8 196.157 2364.45 194.228C2363.55 192.792 2363.11 191.132 2362.66 189.247C2361.76 188.484 2361.31 188.081 2360.41 188.081C2358.17 188.081 2357.27 190.414 2357.27 195.125V196.606V201.811V205.805V207.734V209.081C2357.27 209.484 2356.82 210.382 2356.82 211.773C2356.37 213.164 2356.37 214.743 2356.37 216.529L2355.48 221.51V221.586V221.6ZM2290.41 219.213C2294.59 219.823 2299.39 221.129 2304.82 223.121C2310.25 225.095 2313.57 226.127 2314.78 226.127C2317.92 226.127 2320.52 224.736 2322.68 222.048C2323.12 221.178 2323.12 220.155 2323.12 218.979C2323.12 214.739 2320.57 209.377 2315.45 202.87L2312.4 198.787C2311.77 197.934 2311.01 196.633 2310.02 194.883C2309.08 193.133 2308.23 191.787 2307.55 190.845C2306.97 189.813 2306.03 188.781 2304.82 187.748C2303.65 186.716 2302.3 186.043 2300.82 185.684C2298.94 186.043 2297.64 186.672 2297.01 187.524C2296.38 188.377 2296.02 189.319 2295.93 190.306C2295.8 191.248 2295.53 191.877 2295.08 192.191C2294.63 192.46 2293.87 192.684 2292.84 192.909C2292.61 192.909 2292.21 192.909 2291.62 192.954H2290.41C2288.04 192.954 2286.42 193.223 2285.57 193.672C2284.45 194.973 2283.86 196.454 2283.86 198.024C2283.86 198.742 2284.04 199.954 2284.4 201.659C2284.76 203.319 2284.94 204.665 2284.94 205.607C2284.94 207.447 2284.4 209.287 2283.28 211.127C2282.16 213.056 2281.57 214.492 2281.57 215.515C2282.02 217.256 2284.98 218.481 2290.41 219.199V219.213ZM2305.36 178.411C2305.36 175.315 2306.16 171.904 2307.82 167.866C2309.44 163.827 2311.05 161.135 2312.62 159.34C2312.54 158.891 2312.31 158.891 2311.95 158.891L2311.5 158.443C2310.2 159.789 2308.63 162.93 2306.75 167.417C2304.86 171.456 2303.87 175.18 2303.87 177.917C2303.87 179.936 2304.37 181.686 2305.27 183.212C2306.25 184.693 2308.63 186.847 2312.4 189.584L2317.16 192.68C2322.23 197.077 2324.92 200.129 2324.92 201.923C2324.92 202.866 2324.47 203.808 2323.12 204.84C2322.23 205.917 2321.02 206.456 2319.98 206.456C2319.89 206.456 2319.85 206.545 2319.85 206.77C2319.85 206.815 2320.3 207.712 2321.24 209.462C2323.12 212.02 2327.16 213.276 2332.55 213.276C2342.42 213.276 2350.05 209.238 2355.88 201.161C2355.88 198.917 2355.88 197.526 2355.43 196.943V195.282C2355.43 192.366 2355.88 190.167 2356.78 188.731C2357.68 187.295 2358.57 186.622 2359.92 186.622C2360.82 186.622 2361.71 186.936 2362.61 187.609C2363.06 184.154 2363.06 181.148 2363.06 178.456C2363.06 174.372 2363.06 171.007 2362.16 167.866C2361.71 165.173 2360.82 162.93 2359.92 161.135C2359.02 159.789 2358.12 158.443 2357.23 157.097C2356.33 155.75 2355.88 154.404 2354.98 153.058C2354.54 151.263 2354.09 149.917 2354.09 147.673C2352.74 145.43 2351.84 143.186 2350.5 140.943C2349.6 138.699 2348.7 136.456 2347.8 134.661L2343.77 137.802C2339.28 140.943 2335.69 142.289 2332.55 142.289C2329.86 142.289 2327.61 141.84 2326.27 140.045L2323.57 137.802C2323.57 139.148 2323.12 140.943 2322.23 142.738L2319.4 148.122C2318.14 151.263 2317.47 153.058 2317.34 154.404C2317.16 155.302 2317.02 156.199 2316.93 156.199L2313.57 162.93C2309.93 169.661 2308.09 175.898 2308.09 181.058C2308.09 182.09 2308.18 183.167 2308.36 184.244C2306.34 182.853 2305.36 180.923 2305.36 178.411V178.411ZM2337.48 220.859C2331.65 220.859 2327.16 221.649 2324.02 223.215V223.081C2321.78 225.773 2319.27 227.164 2315.77 227.164C2313.57 227.164 2310.11 226.311 2305.45 224.606C2300.73 222.991 2296.56 221.752 2292.93 220.936C2292.57 220.832 2291.76 220.68 2290.46 220.473C2289.2 220.272 2288.04 220.065 2287 219.859C2286.06 219.657 2284.98 219.352 2283.82 218.939C2282.7 218.584 2281.8 218.122 2281.12 217.561C2280.51 216.996 2280.2 216.359 2280.2 215.645C2280.2 214.927 2280.35 214.16 2280.66 213.343C2280.95 212.85 2281.26 212.356 2281.57 211.907C2281.89 211.414 2282.16 210.965 2282.34 210.516C2282.61 210.113 2282.79 209.709 2282.96 209.26C2283.14 208.856 2283.32 208.452 2283.41 207.959C2283.5 207.51 2283.59 207.061 2283.59 206.613C2283.59 206.164 2283.41 204.818 2283.05 202.44C2282.7 200.106 2282.52 198.625 2282.52 197.997C2282.52 196.023 2282.96 194.452 2283.95 193.331C2284.94 192.209 2285.88 191.625 2286.87 191.625H2292.03C2292.43 191.625 2293.06 191.401 2294 190.863C2294.32 190.145 2294.59 189.561 2294.77 189.023C2294.99 188.484 2295.08 188.081 2295.17 187.901C2295.26 187.632 2295.35 187.363 2295.44 187.138C2295.62 186.824 2295.84 186.465 2296.16 186.106C2295.8 185.657 2295.62 185.074 2295.62 184.356C2295.62 183.863 2295.62 183.414 2295.71 183.145C2295.71 181.529 2296.47 179.241 2298.09 176.234L2299.66 173.407C2300.96 170.984 2301.95 169.19 2302.66 167.395C2303.43 165.6 2304.23 162.907 2305.13 159.318C2305.85 156.177 2307.55 153.036 2310.25 149.895L2313.61 145.856C2315.95 143.164 2317.47 140.92 2318.32 139.125C2319.18 137.331 2319.62 135.087 2319.62 133.292C2319.62 132.395 2319.4 129.702 2318.91 125.215C2318.46 120.728 2318.23 116.241 2318.23 112.202C2318.23 109.061 2318.5 106.818 2319.09 104.574C2319.67 102.331 2320.7 100.087 2322.23 98.2921C2323.57 96.4972 2325.37 94.7023 2328.06 93.8049C2330.75 92.9075 2333.89 92.4587 2337.48 92.4587C2338.83 92.4587 2340.18 92.4587 2341.52 92.9075C2342.87 92.9075 2344.66 93.3562 2346.91 94.2536C2348.7 95.151 2350.5 96.0485 2351.84 97.3946C2353.64 98.7408 2354.98 100.984 2356.33 103.228C2357.23 105.92 2358.12 108.613 2358.57 112.202C2359.02 114.446 2359.02 116.69 2359.47 119.831C2359.47 122.523 2359.92 124.318 2359.92 125.664C2360.37 127.01 2360.37 128.805 2360.82 131.048C2361.27 132.843 2361.71 134.638 2362.61 135.984C2363.51 137.779 2364.41 139.574 2365.75 141.369C2367.1 143.613 2368.89 145.856 2370.69 148.548C2374.73 153.036 2377.87 157.972 2379.66 162.907C2381.91 167.395 2383.25 173.228 2383.25 179.465C2383.25 182.561 2382.8 185.568 2381.91 188.484C2382.8 188.484 2383.25 188.843 2383.7 189.472C2384.15 190.1 2384.6 191.446 2385.05 193.555L2385.5 196.875C2385.95 197.863 2386.39 198.805 2387.74 199.613C2388.64 200.42 2389.54 201.093 2390.88 201.632C2391.78 202.081 2393.12 202.709 2394.02 203.516C2394.92 204.414 2395.37 205.356 2395.37 206.343C2395.37 207.869 2394.92 208.991 2394.02 209.798C2393.12 210.696 2392.23 211.324 2390.88 211.728C2389.98 212.177 2388.19 213.074 2385.5 214.34C2383.25 215.668 2381.01 217.279 2378.77 219.186L2374.28 223.004C2372.48 224.754 2370.69 226.011 2369.34 226.773C2368 227.581 2366.2 227.985 2364.41 227.985L2361.27 227.626C2357.68 226.684 2355.43 224.889 2354.09 222.152C2346.91 221.281 2341.07 220.85 2337.48 220.85" fill="white"/>
<defs>
<linearGradient id="paint0_linear" x1="178.668" y1="278.431" x2="176.75" y2="-59.6214" gradientUnits="userSpaceOnUse">
<stop stop-color="#F467E9"/>
<stop offset="1" stop-color="#9253F8"/>
</linearGradient>
<linearGradient id="paint1_linear" x1="183.934" y1="255.233" x2="270.873" y2="220.317" gradientUnits="userSpaceOnUse">
<stop stop-color="#1A237E" stop-opacity="0.4"/>
<stop offset="1" stop-color="#1A237E" stop-opacity="0"/>
</linearGradient>
<linearGradient id="paint2_linear" x1="435" y1="72" x2="435" y2="244" gradientUnits="userSpaceOnUse">
<stop stop-color="#9253F8"/>
<stop offset="1" stop-color="#F467E9"/>
</linearGradient>
</defs>
</svg>
