<svg width="2495" height="315" viewBox="0 0 2495 315" fill="none" xmlns="http://www.w3.org/2000/svg">
<rect width="2495" height="315" rx="34" fill="#00072F"/>
<mask id="mask0" mask-type="alpha" maskUnits="userSpaceOnUse" x="79" y="39" width="220" height="238">
<path fill-rule="evenodd" clip-rule="evenodd" d="M240.536 119.846L296.385 91.0356C274.963 59.6233 238.89 39 198 39C132.278 39 79 92.2781 79 158C79 223.722 132.278 277 198 277C240.361 277 277.553 254.866 298.64 221.532L240.536 191.558C230.309 203.155 215.207 210.492 198.361 210.492C167.557 210.492 142.585 185.962 142.585 155.702C142.585 125.443 167.557 100.912 198.361 100.912C215.207 100.912 230.309 108.249 240.536 119.846Z" fill="#C4C4C4"/>
</mask>
<g mask="url(#mask0)">
<rect x="32.3798" y="21.4673" width="339.148" height="276.688" fill="url(#paint0_linear)"/>
<path d="M167.624 230.268L202.523 317.166L359.341 370.076L277.941 167.372L167.624 230.268Z" fill="white"/>
<path d="M167.223 230.245L299.876 223.605L277.518 167.363L167.223 230.245Z" fill="url(#paint1_linear)"/>
</g>
<circle cx="435" cy="158" r="86" fill="url(#paint2_linear)"/>
<path d="M445.111 193H431V138.605L414.154 143.83V132.355L443.598 121.809H445.111V193Z" fill="white"/>
<path d="M607.195 173.961V212H589.406V109.625H628.57C640.008 109.625 649.078 112.602 655.781 118.555C662.531 124.508 665.906 132.383 665.906 142.18C665.906 152.211 662.602 160.016 655.992 165.594C649.43 171.172 640.219 173.961 628.359 173.961H607.195ZM607.195 159.688H628.57C634.898 159.688 639.727 158.211 643.055 155.258C646.383 152.258 648.047 147.945 648.047 142.32C648.047 136.789 646.359 132.383 642.984 129.102C639.609 125.773 634.969 124.062 629.062 123.969H607.195V159.688ZM719.695 151.531C717.445 151.156 715.125 150.969 712.734 150.969C704.906 150.969 699.633 153.969 696.914 159.969V212H679.828V135.922H696.141L696.562 144.43C700.688 137.82 706.406 134.516 713.719 134.516C716.156 134.516 718.172 134.844 719.766 135.5L719.695 151.531ZM762.586 213.406C751.758 213.406 742.969 210.008 736.219 203.211C729.516 196.367 726.164 187.273 726.164 175.93V173.82C726.164 166.227 727.617 159.453 730.523 153.5C733.477 147.5 737.602 142.836 742.898 139.508C748.195 136.18 754.102 134.516 760.617 134.516C770.977 134.516 778.969 137.82 784.594 144.43C790.266 151.039 793.102 160.391 793.102 172.484V179.375H743.391C743.906 185.656 745.992 190.625 749.648 194.281C753.352 197.938 757.992 199.766 763.57 199.766C771.398 199.766 777.773 196.602 782.695 190.273L791.906 199.062C788.859 203.609 784.781 207.148 779.672 209.68C774.609 212.164 768.914 213.406 762.586 213.406ZM760.547 148.227C755.859 148.227 752.062 149.867 749.156 153.148C746.297 156.43 744.469 161 743.672 166.859H776.227V165.594C775.852 159.875 774.328 155.562 771.656 152.656C768.984 149.703 765.281 148.227 760.547 148.227ZM846.258 151.531C844.008 151.156 841.688 150.969 839.297 150.969C831.469 150.969 826.195 153.969 823.477 159.969V212H806.391V135.922H822.703L823.125 144.43C827.25 137.82 832.969 134.516 840.281 134.516C842.719 134.516 844.734 134.844 846.328 135.5L846.258 151.531ZM889.148 213.406C878.32 213.406 869.531 210.008 862.781 203.211C856.078 196.367 852.727 187.273 852.727 175.93V173.82C852.727 166.227 854.18 159.453 857.086 153.5C860.039 147.5 864.164 142.836 869.461 139.508C874.758 136.18 880.664 134.516 887.18 134.516C897.539 134.516 905.531 137.82 911.156 144.43C916.828 151.039 919.664 160.391 919.664 172.484V179.375H869.953C870.469 185.656 872.555 190.625 876.211 194.281C879.914 197.938 884.555 199.766 890.133 199.766C897.961 199.766 904.336 196.602 909.258 190.273L918.469 199.062C915.422 203.609 911.344 207.148 906.234 209.68C901.172 212.164 895.477 213.406 889.148 213.406ZM887.109 148.227C882.422 148.227 878.625 149.867 875.719 153.148C872.859 156.43 871.031 161 870.234 166.859H902.789V165.594C902.414 159.875 900.891 155.562 898.219 152.656C895.547 149.703 891.844 148.227 887.109 148.227ZM929.789 173.328C929.789 161.422 932.508 151.977 937.945 144.992C943.383 138.008 950.742 134.516 960.023 134.516C968.508 134.516 975.234 137.492 980.203 143.445L981.188 135.922H996.375V241.25H979.289V205.531C974.32 210.781 967.852 213.406 959.883 213.406C950.789 213.406 943.5 209.867 938.016 202.789C932.531 195.664 929.789 185.844 929.789 173.328ZM946.875 174.805C946.875 182.586 948.398 188.703 951.445 193.156C954.539 197.562 958.805 199.766 964.242 199.766C970.992 199.766 976.008 196.883 979.289 191.117V156.523C976.008 150.992 971.039 148.227 964.383 148.227C958.945 148.227 954.656 150.406 951.516 154.766C948.422 159.125 946.875 165.805 946.875 174.805ZM1060.92 204.547C1055.91 210.453 1048.78 213.406 1039.55 213.406C1031.3 213.406 1025.04 210.992 1020.77 206.164C1016.55 201.336 1014.45 194.352 1014.45 185.211V135.922H1031.53V185C1031.53 194.656 1035.54 199.484 1043.55 199.484C1051.85 199.484 1057.45 196.508 1060.36 190.555V135.922H1077.45V212H1061.34L1060.92 204.547ZM1113.02 212H1095.94V135.922H1113.02V212ZM1094.88 116.164C1094.88 113.539 1095.7 111.359 1097.34 109.625C1099.03 107.891 1101.42 107.023 1104.52 107.023C1107.61 107.023 1110 107.891 1111.69 109.625C1113.38 111.359 1114.22 113.539 1114.22 116.164C1114.22 118.742 1113.38 120.898 1111.69 122.633C1110 124.32 1107.61 125.164 1104.52 125.164C1101.42 125.164 1099.03 124.32 1097.34 122.633C1095.7 120.898 1094.88 118.742 1094.88 116.164ZM1174.34 191.328C1174.34 188.281 1173.07 185.961 1170.54 184.367C1168.05 182.773 1163.91 181.367 1158.09 180.148C1152.28 178.93 1147.43 177.383 1143.54 175.508C1135.01 171.383 1130.74 165.406 1130.74 157.578C1130.74 151.016 1133.51 145.531 1139.04 141.125C1144.57 136.719 1151.6 134.516 1160.13 134.516C1169.23 134.516 1176.56 136.766 1182.14 141.266C1187.77 145.766 1190.58 151.602 1190.58 158.773H1173.49C1173.49 155.492 1172.27 152.773 1169.84 150.617C1167.4 148.414 1164.16 147.312 1160.13 147.312C1156.38 147.312 1153.31 148.18 1150.92 149.914C1148.58 151.648 1147.41 153.969 1147.41 156.875C1147.41 159.5 1148.51 161.539 1150.71 162.992C1152.91 164.445 1157.37 165.922 1164.07 167.422C1170.77 168.875 1176.02 170.633 1179.82 172.695C1183.66 174.711 1186.5 177.148 1188.33 180.008C1190.2 182.867 1191.14 186.336 1191.14 190.414C1191.14 197.258 1188.3 202.812 1182.63 207.078C1176.96 211.297 1169.53 213.406 1160.34 213.406C1154.11 213.406 1148.55 212.281 1143.68 210.031C1138.8 207.781 1135.01 204.688 1132.29 200.75C1129.57 196.812 1128.21 192.57 1128.21 188.023H1144.8C1145.04 192.055 1146.56 195.172 1149.38 197.375C1152.19 199.531 1155.91 200.609 1160.55 200.609C1165.05 200.609 1168.48 199.766 1170.82 198.078C1173.16 196.344 1174.34 194.094 1174.34 191.328ZM1224.26 212H1207.17V135.922H1224.26V212ZM1206.12 116.164C1206.12 113.539 1206.94 111.359 1208.58 109.625C1210.27 107.891 1212.66 107.023 1215.75 107.023C1218.84 107.023 1221.23 107.891 1222.92 109.625C1224.61 111.359 1225.45 113.539 1225.45 116.164C1225.45 118.742 1224.61 120.898 1222.92 122.633C1221.23 124.32 1218.84 125.164 1215.75 125.164C1212.66 125.164 1210.27 124.32 1208.58 122.633C1206.94 120.898 1206.12 118.742 1206.12 116.164ZM1264.34 117.43V135.922H1277.77V148.578H1264.34V191.047C1264.34 193.953 1264.9 196.062 1266.02 197.375C1267.2 198.641 1269.26 199.273 1272.21 199.273C1274.18 199.273 1276.17 199.039 1278.19 198.57V211.789C1274.3 212.867 1270.55 213.406 1266.94 213.406C1253.81 213.406 1247.25 206.164 1247.25 191.68V148.578H1234.73V135.922H1247.25V117.43H1264.34ZM1324.38 213.406C1313.55 213.406 1304.77 210.008 1298.02 203.211C1291.31 196.367 1287.96 187.273 1287.96 175.93V173.82C1287.96 166.227 1289.41 159.453 1292.32 153.5C1295.27 147.5 1299.4 142.836 1304.7 139.508C1309.99 136.18 1315.9 134.516 1322.41 134.516C1332.77 134.516 1340.77 137.82 1346.39 144.43C1352.06 151.039 1354.9 160.391 1354.9 172.484V179.375H1305.19C1305.7 185.656 1307.79 190.625 1311.45 194.281C1315.15 197.938 1319.79 199.766 1325.37 199.766C1333.2 199.766 1339.57 196.602 1344.49 190.273L1353.7 199.062C1350.66 203.609 1346.58 207.148 1341.47 209.68C1336.41 212.164 1330.71 213.406 1324.38 213.406ZM1322.34 148.227C1317.66 148.227 1313.86 149.867 1310.95 153.148C1308.09 156.43 1306.27 161 1305.47 166.859H1338.02V165.594C1337.65 159.875 1336.12 155.562 1333.45 152.656C1330.78 149.703 1327.08 148.227 1322.34 148.227ZM1410.87 191.328C1410.87 188.281 1409.6 185.961 1407.07 184.367C1404.59 182.773 1400.44 181.367 1394.62 180.148C1388.81 178.93 1383.96 177.383 1380.07 175.508C1371.54 171.383 1367.27 165.406 1367.27 157.578C1367.27 151.016 1370.04 145.531 1375.57 141.125C1381.1 136.719 1388.13 134.516 1396.66 134.516C1405.76 134.516 1413.09 136.766 1418.67 141.266C1424.3 145.766 1427.11 151.602 1427.11 158.773H1410.02C1410.02 155.492 1408.8 152.773 1406.37 150.617C1403.93 148.414 1400.7 147.312 1396.66 147.312C1392.91 147.312 1389.84 148.18 1387.45 149.914C1385.11 151.648 1383.94 153.969 1383.94 156.875C1383.94 159.5 1385.04 161.539 1387.24 162.992C1389.45 164.445 1393.9 165.922 1400.6 167.422C1407.3 168.875 1412.55 170.633 1416.35 172.695C1420.2 174.711 1423.03 177.148 1424.86 180.008C1426.73 182.867 1427.67 186.336 1427.67 190.414C1427.67 197.258 1424.84 202.812 1419.16 207.078C1413.49 211.297 1406.06 213.406 1396.88 213.406C1390.64 213.406 1385.09 212.281 1380.21 210.031C1375.34 207.781 1371.54 204.688 1368.82 200.75C1366.1 196.812 1364.74 192.57 1364.74 188.023H1381.34C1381.57 192.055 1383.09 195.172 1385.91 197.375C1388.72 199.531 1392.45 200.609 1397.09 200.609C1401.59 200.609 1405.01 199.766 1407.35 198.078C1409.7 196.344 1410.87 194.094 1410.87 191.328Z" fill="white"/>
<defs>
<linearGradient id="paint0_linear" x1="178.668" y1="278.431" x2="176.75" y2="-59.6214" gradientUnits="userSpaceOnUse">
<stop stop-color="#F467E9"/>
<stop offset="1" stop-color="#9253F8"/>
</linearGradient>
<linearGradient id="paint1_linear" x1="183.934" y1="255.233" x2="270.873" y2="220.317" gradientUnits="userSpaceOnUse">
<stop stop-color="#1A237E" stop-opacity="0.4"/>
<stop offset="1" stop-color="#1A237E" stop-opacity="0"/>
</linearGradient>
<linearGradient id="paint2_linear" x1="435" y1="72" x2="435" y2="244" gradientUnits="userSpaceOnUse">
<stop stop-color="#9253F8"/>
<stop offset="1" stop-color="#F467E9"/>
</linearGradient>
</defs>
</svg>
