<svg width="1805" height="797" viewBox="0 0 1805 797" fill="none" xmlns="http://www.w3.org/2000/svg">
<rect width="1805" height="797" rx="34" fill="white"/>
<path d="M428.953 542.625L455.25 616.875L481.406 542.625H509.109V645H487.945V617.016L490.055 568.711L462.422 645H447.938L420.375 568.781L422.484 617.016V645H401.391V542.625H428.953ZM570.281 645C569.344 643.172 568.664 640.898 568.242 638.18C563.32 643.664 556.922 646.406 549.047 646.406C541.594 646.406 535.406 644.25 530.484 639.938C525.609 635.625 523.172 630.188 523.172 623.625C523.172 615.562 526.148 609.375 532.102 605.062C538.102 600.75 546.75 598.57 558.047 598.523H567.398V594.164C567.398 590.648 566.484 587.836 564.656 585.727C562.875 583.617 560.039 582.562 556.148 582.562C552.727 582.562 550.031 583.383 548.062 585.023C546.141 586.664 545.18 588.914 545.18 591.773H524.859C524.859 587.367 526.219 583.289 528.938 579.539C531.656 575.789 535.5 572.859 540.469 570.75C545.438 568.594 551.016 567.516 557.203 567.516C566.578 567.516 574.008 569.883 579.492 574.617C585.023 579.305 587.789 585.914 587.789 594.445V627.422C587.836 634.641 588.844 640.102 590.812 643.805V645H570.281ZM553.477 630.867C556.477 630.867 559.242 630.211 561.773 628.898C564.305 627.539 566.18 625.734 567.398 623.484V610.406H559.805C549.633 610.406 544.219 613.922 543.562 620.953L543.492 622.148C543.492 624.68 544.383 626.766 546.164 628.406C547.945 630.047 550.383 630.867 553.477 630.867ZM600.234 606.398C600.234 594.539 602.883 585.094 608.18 578.062C613.523 571.031 620.812 567.516 630.047 567.516C637.453 567.516 643.57 570.281 648.398 575.812V537H668.789V645H650.438L649.453 636.914C644.391 643.242 637.875 646.406 629.906 646.406C620.953 646.406 613.758 642.891 608.32 635.859C602.93 628.781 600.234 618.961 600.234 606.398ZM620.555 607.875C620.555 615 621.797 620.461 624.281 624.258C626.766 628.055 630.375 629.953 635.109 629.953C641.391 629.953 645.82 627.305 648.398 622.008V591.984C645.867 586.688 641.484 584.039 635.25 584.039C625.453 584.039 620.555 591.984 620.555 607.875ZM719.555 646.406C708.398 646.406 699.305 642.984 692.273 636.141C685.289 629.297 681.797 620.18 681.797 608.789V606.82C681.797 599.18 683.273 592.359 686.227 586.359C689.18 580.312 693.352 575.672 698.742 572.438C704.18 569.156 710.367 567.516 717.305 567.516C727.711 567.516 735.891 570.797 741.844 577.359C747.844 583.922 750.844 593.227 750.844 605.273V613.57H702.398C703.055 618.539 705.023 622.523 708.305 625.523C711.633 628.523 715.828 630.023 720.891 630.023C728.719 630.023 734.836 627.188 739.242 621.516L749.227 632.695C746.18 637.008 742.055 640.383 736.852 642.82C731.648 645.211 725.883 646.406 719.555 646.406ZM717.234 583.969C713.203 583.969 709.922 585.328 707.391 588.047C704.906 590.766 703.312 594.656 702.609 599.719H730.875V598.102C730.781 593.602 729.562 590.133 727.219 587.695C724.875 585.211 721.547 583.969 717.234 583.969ZM799.641 645V542.625H831.141C840.141 542.625 848.18 544.664 855.258 548.742C862.383 552.773 867.938 558.539 871.922 566.039C875.906 573.492 877.898 581.977 877.898 591.492V596.203C877.898 605.719 875.93 614.18 871.992 621.586C868.102 628.992 862.594 634.734 855.469 638.812C848.344 642.891 840.305 644.953 831.352 645H799.641ZM820.734 559.711V628.055H830.93C839.18 628.055 845.484 625.359 849.844 619.969C854.203 614.578 856.43 606.867 856.523 596.836V591.422C856.523 581.016 854.367 573.141 850.055 567.797C845.742 562.406 839.438 559.711 831.141 559.711H820.734ZM926.977 646.406C915.82 646.406 906.727 642.984 899.695 636.141C892.711 629.297 889.219 620.18 889.219 608.789V606.82C889.219 599.18 890.695 592.359 893.648 586.359C896.602 580.312 900.773 575.672 906.164 572.438C911.602 569.156 917.789 567.516 924.727 567.516C935.133 567.516 943.312 570.797 949.266 577.359C955.266 583.922 958.266 593.227 958.266 605.273V613.57H909.82C910.477 618.539 912.445 622.523 915.727 625.523C919.055 628.523 923.25 630.023 928.312 630.023C936.141 630.023 942.258 627.188 946.664 621.516L956.648 632.695C953.602 637.008 949.477 640.383 944.273 642.82C939.07 645.211 933.305 646.406 926.977 646.406ZM924.656 583.969C920.625 583.969 917.344 585.328 914.812 588.047C912.328 590.766 910.734 594.656 910.031 599.719H938.297V598.102C938.203 593.602 936.984 590.133 934.641 587.695C932.297 585.211 928.969 583.969 924.656 583.969ZM991.312 645H970.922V537H991.312V645ZM1029.56 645H1009.17V568.922H1029.56V645ZM1007.98 549.234C1007.98 546.188 1008.98 543.68 1011 541.711C1013.06 539.742 1015.85 538.758 1019.37 538.758C1022.84 538.758 1025.6 539.742 1027.66 541.711C1029.73 543.68 1030.76 546.188 1030.76 549.234C1030.76 552.328 1029.7 554.859 1027.59 556.828C1025.53 558.797 1022.79 559.781 1019.37 559.781C1015.95 559.781 1013.18 558.797 1011.07 556.828C1009.01 554.859 1007.98 552.328 1007.98 549.234ZM1043.41 606.398C1043.41 594.727 1046.18 585.328 1051.71 578.203C1057.29 571.078 1064.79 567.516 1074.21 567.516C1082.55 567.516 1089.05 570.375 1093.69 576.094L1094.53 568.922H1112.95V642.469C1112.95 649.125 1111.43 654.914 1108.38 659.836C1105.38 664.758 1101.14 668.508 1095.66 671.086C1090.17 673.664 1083.75 674.953 1076.39 674.953C1070.81 674.953 1065.38 673.828 1060.08 671.578C1054.78 669.375 1050.77 666.516 1048.05 663L1057.05 650.625C1062.12 656.297 1068.26 659.133 1075.48 659.133C1080.87 659.133 1085.06 657.68 1088.06 654.773C1091.06 651.914 1092.56 647.836 1092.56 642.539V638.461C1087.88 643.758 1081.71 646.406 1074.07 646.406C1064.93 646.406 1057.52 642.844 1051.85 635.719C1046.23 628.547 1043.41 619.055 1043.41 607.242V606.398ZM1063.73 607.875C1063.73 614.766 1065.12 620.18 1067.88 624.117C1070.65 628.008 1074.45 629.953 1079.27 629.953C1085.46 629.953 1089.89 627.633 1092.56 622.992V591C1089.84 586.359 1085.46 584.039 1079.41 584.039C1074.54 584.039 1070.7 586.031 1067.88 590.016C1065.12 594 1063.73 599.953 1063.73 607.875ZM1148.46 577.219C1153.85 570.75 1160.62 567.516 1168.78 567.516C1185.28 567.516 1193.65 577.102 1193.88 596.273V645H1173.56V596.836C1173.56 592.477 1172.62 589.266 1170.75 587.203C1168.88 585.094 1165.76 584.039 1161.4 584.039C1155.45 584.039 1151.13 586.336 1148.46 590.93V645H1128.14V537H1148.46V577.219ZM1214.77 645V583.828H1203.45V568.922H1214.77V562.453C1214.77 553.922 1217.2 547.312 1222.08 542.625C1227 537.891 1233.87 535.523 1242.68 535.523C1245.49 535.523 1248.94 535.992 1253.02 536.93L1252.8 552.68C1251.12 552.258 1249.05 552.047 1246.62 552.047C1238.98 552.047 1235.16 555.633 1235.16 562.805V568.922H1250.27V583.828H1235.16V645H1214.77ZM1306.38 637.266C1301.37 643.359 1294.43 646.406 1285.57 646.406C1277.41 646.406 1271.18 644.062 1266.87 639.375C1262.6 634.688 1260.42 627.82 1260.33 618.773V568.922H1280.65V618.07C1280.65 625.992 1284.26 629.953 1291.48 629.953C1298.37 629.953 1303.1 627.562 1305.68 622.781V568.922H1326.07V645H1306.95L1306.38 637.266ZM1362.84 645H1342.45V537H1362.84V645ZM1380.7 635.016C1380.7 631.781 1381.78 629.156 1383.94 627.141C1386.14 625.125 1388.88 624.117 1392.16 624.117C1395.49 624.117 1398.23 625.125 1400.39 627.141C1402.59 629.156 1403.7 631.781 1403.7 635.016C1403.7 638.203 1402.62 640.805 1400.46 642.82C1398.3 644.789 1395.54 645.773 1392.16 645.773C1388.84 645.773 1386.09 644.789 1383.94 642.82C1381.78 640.805 1380.7 638.203 1380.7 635.016Z" fill="url(#paint0_linear)"/>
<path d="M315.953 443.164H275.453V485H254.359V382.625H321.016V399.711H275.453V426.148H315.953V443.164ZM353.359 485H332.969V377H353.359V485ZM415.727 477.266C410.711 483.359 403.773 486.406 394.914 486.406C386.758 486.406 380.523 484.062 376.211 479.375C371.945 474.688 369.766 467.82 369.672 458.773V408.922H389.992V458.07C389.992 465.992 393.602 469.953 400.82 469.953C407.711 469.953 412.445 467.562 415.023 462.781V408.922H435.414V485H416.289L415.727 477.266ZM475.07 390.219V408.922H488.078V423.828H475.07V461.797C475.07 464.609 475.609 466.625 476.688 467.844C477.766 469.062 479.828 469.672 482.875 469.672C485.125 469.672 487.117 469.508 488.852 469.18V484.578C484.867 485.797 480.766 486.406 476.547 486.406C462.297 486.406 455.031 479.211 454.75 464.82V423.828H443.641V408.922H454.75V390.219H475.07ZM523.727 390.219V408.922H536.734V423.828H523.727V461.797C523.727 464.609 524.266 466.625 525.344 467.844C526.422 469.062 528.484 469.672 531.531 469.672C533.781 469.672 535.773 469.508 537.508 469.18V484.578C533.523 485.797 529.422 486.406 525.203 486.406C510.953 486.406 503.688 479.211 503.406 464.82V423.828H492.297V408.922H503.406V390.219H523.727ZM583.07 486.406C571.914 486.406 562.82 482.984 555.789 476.141C548.805 469.297 545.312 460.18 545.312 448.789V446.82C545.312 439.18 546.789 432.359 549.742 426.359C552.695 420.312 556.867 415.672 562.258 412.438C567.695 409.156 573.883 407.516 580.82 407.516C591.227 407.516 599.406 410.797 605.359 417.359C611.359 423.922 614.359 433.227 614.359 445.273V453.57H565.914C566.57 458.539 568.539 462.523 571.82 465.523C575.148 468.523 579.344 470.023 584.406 470.023C592.234 470.023 598.352 467.188 602.758 461.516L612.742 472.695C609.695 477.008 605.57 480.383 600.367 482.82C595.164 485.211 589.398 486.406 583.07 486.406ZM580.75 423.969C576.719 423.969 573.438 425.328 570.906 428.047C568.422 430.766 566.828 434.656 566.125 439.719H594.391V438.102C594.297 433.602 593.078 430.133 590.734 427.695C588.391 425.211 585.062 423.969 580.75 423.969ZM668.711 427.977C665.945 427.602 663.508 427.414 661.398 427.414C653.711 427.414 648.672 430.016 646.281 435.219V485H625.961V408.922H645.156L645.719 417.992C649.797 411.008 655.445 407.516 662.664 407.516C664.914 407.516 667.023 407.82 668.992 408.43L668.711 427.977ZM715.75 485V382.625H747.25C756.25 382.625 764.289 384.664 771.367 388.742C778.492 392.773 784.047 398.539 788.031 406.039C792.016 413.492 794.008 421.977 794.008 431.492V436.203C794.008 445.719 792.039 454.18 788.102 461.586C784.211 468.992 778.703 474.734 771.578 478.812C764.453 482.891 756.414 484.953 747.461 485H715.75ZM736.844 399.711V468.055H747.039C755.289 468.055 761.594 465.359 765.953 459.969C770.312 454.578 772.539 446.867 772.633 436.836V431.422C772.633 421.016 770.477 413.141 766.164 407.797C761.852 402.406 755.547 399.711 747.25 399.711H736.844ZM843.086 486.406C831.93 486.406 822.836 482.984 815.805 476.141C808.82 469.297 805.328 460.18 805.328 448.789V446.82C805.328 439.18 806.805 432.359 809.758 426.359C812.711 420.312 816.883 415.672 822.273 412.438C827.711 409.156 833.898 407.516 840.836 407.516C851.242 407.516 859.422 410.797 865.375 417.359C871.375 423.922 874.375 433.227 874.375 445.273V453.57H825.93C826.586 458.539 828.555 462.523 831.836 465.523C835.164 468.523 839.359 470.023 844.422 470.023C852.25 470.023 858.367 467.188 862.773 461.516L872.758 472.695C869.711 477.008 865.586 480.383 860.383 482.82C855.18 485.211 849.414 486.406 843.086 486.406ZM840.766 423.969C836.734 423.969 833.453 425.328 830.922 428.047C828.438 430.766 826.844 434.656 826.141 439.719H854.406V438.102C854.312 433.602 853.094 430.133 850.75 427.695C848.406 425.211 845.078 423.969 840.766 423.969ZM913.469 460.18L927.602 408.922H948.836L923.172 485H903.766L878.102 408.922H899.336L913.469 460.18ZM991.867 486.406C980.711 486.406 971.617 482.984 964.586 476.141C957.602 469.297 954.109 460.18 954.109 448.789V446.82C954.109 439.18 955.586 432.359 958.539 426.359C961.492 420.312 965.664 415.672 971.055 412.438C976.492 409.156 982.68 407.516 989.617 407.516C1000.02 407.516 1008.2 410.797 1014.16 417.359C1020.16 423.922 1023.16 433.227 1023.16 445.273V453.57H974.711C975.367 458.539 977.336 462.523 980.617 465.523C983.945 468.523 988.141 470.023 993.203 470.023C1001.03 470.023 1007.15 467.188 1011.55 461.516L1021.54 472.695C1018.49 477.008 1014.37 480.383 1009.16 482.82C1003.96 485.211 998.195 486.406 991.867 486.406ZM989.547 423.969C985.516 423.969 982.234 425.328 979.703 428.047C977.219 430.766 975.625 434.656 974.922 439.719H1003.19V438.102C1003.09 433.602 1001.88 430.133 999.531 427.695C997.188 425.211 993.859 423.969 989.547 423.969ZM1056.2 485H1035.81V377H1056.2V485ZM1069.84 446.258C1069.84 438.711 1071.3 431.984 1074.2 426.078C1077.11 420.172 1081.28 415.602 1086.72 412.367C1092.2 409.133 1098.55 407.516 1105.77 407.516C1116.04 407.516 1124.41 410.656 1130.88 416.938C1137.39 423.219 1141.02 431.75 1141.77 442.531L1141.91 447.734C1141.91 459.406 1138.66 468.781 1132.14 475.859C1125.62 482.891 1116.88 486.406 1105.91 486.406C1094.95 486.406 1086.18 482.891 1079.62 475.859C1073.1 468.828 1069.84 459.266 1069.84 447.172V446.258ZM1090.16 447.734C1090.16 454.953 1091.52 460.484 1094.24 464.328C1096.96 468.125 1100.85 470.023 1105.91 470.023C1110.84 470.023 1114.68 468.148 1117.45 464.398C1120.21 460.602 1121.59 454.555 1121.59 446.258C1121.59 439.18 1120.21 433.695 1117.45 429.805C1114.68 425.914 1110.79 423.969 1105.77 423.969C1100.8 423.969 1096.96 425.914 1094.24 429.805C1091.52 433.648 1090.16 439.625 1090.16 447.734ZM1222.91 447.664C1222.91 459.383 1220.24 468.781 1214.9 475.859C1209.6 482.891 1202.43 486.406 1193.38 486.406C1185.7 486.406 1179.48 483.734 1174.75 478.391V514.25H1154.43V408.922H1173.27L1173.98 416.375C1178.9 410.469 1185.32 407.516 1193.24 407.516C1202.62 407.516 1209.91 410.984 1215.11 417.922C1220.31 424.859 1222.91 434.422 1222.91 446.609V447.664ZM1202.59 446.188C1202.59 439.109 1201.33 433.648 1198.8 429.805C1196.31 425.961 1192.68 424.039 1187.9 424.039C1181.52 424.039 1177.14 426.477 1174.75 431.352V462.5C1177.23 467.516 1181.66 470.023 1188.04 470.023C1197.74 470.023 1202.59 462.078 1202.59 446.188ZM1254.62 408.922L1255.26 417.43C1260.65 410.82 1267.94 407.516 1277.12 407.516C1286.92 407.516 1293.65 411.383 1297.3 419.117C1302.65 411.383 1310.27 407.516 1320.16 407.516C1328.41 407.516 1334.55 409.93 1338.58 414.758C1342.61 419.539 1344.62 426.758 1344.62 436.414V485H1324.23V436.484C1324.23 432.172 1323.39 429.031 1321.7 427.062C1320.02 425.047 1317.04 424.039 1312.77 424.039C1306.68 424.039 1302.46 426.945 1300.12 432.758L1300.19 485H1279.87V436.555C1279.87 432.148 1279 428.961 1277.27 426.992C1275.53 425.023 1272.58 424.039 1268.41 424.039C1262.64 424.039 1258.47 426.43 1255.89 431.211V485H1235.57V408.922H1254.62ZM1395.32 486.406C1384.16 486.406 1375.07 482.984 1368.04 476.141C1361.05 469.297 1357.56 460.18 1357.56 448.789V446.82C1357.56 439.18 1359.04 432.359 1361.99 426.359C1364.95 420.312 1369.12 415.672 1374.51 412.438C1379.95 409.156 1386.13 407.516 1393.07 407.516C1403.48 407.516 1411.66 410.797 1417.61 417.359C1423.61 423.922 1426.61 433.227 1426.61 445.273V453.57H1378.16C1378.82 458.539 1380.79 462.523 1384.07 465.523C1387.4 468.523 1391.59 470.023 1396.66 470.023C1404.48 470.023 1410.6 467.188 1415.01 461.516L1424.99 472.695C1421.95 477.008 1417.82 480.383 1412.62 482.82C1407.41 485.211 1401.65 486.406 1395.32 486.406ZM1393 423.969C1388.97 423.969 1385.69 425.328 1383.16 428.047C1380.67 430.766 1379.08 434.656 1378.38 439.719H1406.64V438.102C1406.55 433.602 1405.33 430.133 1402.98 427.695C1400.64 425.211 1397.31 423.969 1393 423.969ZM1456.91 408.922L1457.55 417.711C1462.98 410.914 1470.27 407.516 1479.41 407.516C1487.48 407.516 1493.48 409.883 1497.41 414.617C1501.35 419.352 1503.37 426.43 1503.46 435.852V485H1483.14V436.344C1483.14 432.031 1482.2 428.914 1480.33 426.992C1478.45 425.023 1475.34 424.039 1470.98 424.039C1465.26 424.039 1460.97 426.477 1458.11 431.352V485H1437.79V408.922H1456.91ZM1543.26 390.219V408.922H1556.27V423.828H1543.26V461.797C1543.26 464.609 1543.8 466.625 1544.88 467.844C1545.95 469.062 1548.02 469.672 1551.06 469.672C1553.31 469.672 1555.3 469.508 1557.04 469.18V484.578C1553.05 485.797 1548.95 486.406 1544.73 486.406C1530.48 486.406 1523.22 479.211 1522.94 464.82V423.828H1511.83V408.922H1522.94V390.219H1543.26Z" fill="black"/>
<path d="M603.234 233.897C603.234 226.444 604.688 219.741 607.594 213.788C610.547 207.835 614.625 203.241 619.828 200.007C625.078 196.772 631.055 195.155 637.758 195.155C648.117 195.155 656.484 198.741 662.859 205.913C669.281 213.085 672.492 222.624 672.492 234.53V235.444C672.492 242.85 671.062 249.507 668.203 255.413C665.391 261.272 661.336 265.843 656.039 269.124C650.789 272.405 644.742 274.046 637.898 274.046C627.586 274.046 619.219 270.46 612.797 263.288C606.422 256.116 603.234 246.624 603.234 234.811V233.897ZM616.312 235.444C616.312 243.882 618.258 250.655 622.148 255.764C626.086 260.874 631.336 263.428 637.898 263.428C644.508 263.428 649.758 260.85 653.648 255.694C657.539 250.491 659.484 243.225 659.484 233.897C659.484 225.553 657.492 218.803 653.508 213.647C649.57 208.444 644.32 205.843 637.758 205.843C631.336 205.843 626.156 208.397 622.219 213.507C618.281 218.616 616.312 225.928 616.312 235.444ZM701.039 196.561L701.391 204.999C706.969 198.436 714.492 195.155 723.961 195.155C734.602 195.155 741.844 199.233 745.688 207.389C748.219 203.733 751.5 200.78 755.531 198.53C759.609 196.28 764.414 195.155 769.945 195.155C786.633 195.155 795.117 203.991 795.398 221.663V272.639H782.391V222.436C782.391 216.999 781.148 212.944 778.664 210.272C776.18 207.553 772.008 206.194 766.148 206.194C761.32 206.194 757.312 207.647 754.125 210.553C750.938 213.413 749.086 217.28 748.57 222.155V272.639H735.492V222.788C735.492 211.725 730.078 206.194 719.25 206.194C710.719 206.194 704.883 209.827 701.742 217.093V272.639H688.734V196.561H701.039ZM879.352 235.444C879.352 247.022 876.703 256.35 871.406 263.428C866.109 270.507 858.938 274.046 849.891 274.046C840.656 274.046 833.391 271.116 828.094 265.257V301.889H815.086V196.561H826.969L827.602 204.999C832.898 198.436 840.258 195.155 849.68 195.155C858.82 195.155 866.039 198.6 871.336 205.491C876.68 212.382 879.352 221.968 879.352 234.249V235.444ZM866.344 233.968C866.344 225.389 864.516 218.616 860.859 213.647C857.203 208.678 852.188 206.194 845.812 206.194C837.938 206.194 832.031 209.686 828.094 216.671V253.022C831.984 259.96 837.938 263.428 845.953 263.428C852.188 263.428 857.133 260.968 860.789 256.046C864.492 251.077 866.344 243.718 866.344 233.968ZM942.914 272.639C942.164 271.139 941.555 268.468 941.086 264.624C935.039 270.905 927.82 274.046 919.43 274.046C911.93 274.046 905.766 271.936 900.938 267.718C896.156 263.452 893.766 258.061 893.766 251.546C893.766 243.624 896.766 237.483 902.766 233.124C908.812 228.718 917.297 226.514 928.219 226.514H940.875V220.538C940.875 215.991 939.516 212.382 936.797 209.71C934.078 206.991 930.07 205.632 924.773 205.632C920.133 205.632 916.242 206.803 913.102 209.147C909.961 211.491 908.391 214.327 908.391 217.655H895.312C895.312 213.858 896.648 210.202 899.32 206.686C902.039 203.124 905.695 200.311 910.289 198.249C914.93 196.186 920.016 195.155 925.547 195.155C934.312 195.155 941.18 197.358 946.148 201.764C951.117 206.124 953.695 212.147 953.883 219.835V254.85C953.883 261.835 954.773 267.389 956.555 271.514V272.639H942.914ZM921.328 262.725C925.406 262.725 929.273 261.671 932.93 259.561C936.586 257.452 939.234 254.71 940.875 251.335V235.725H930.68C914.742 235.725 906.773 240.389 906.773 249.718C906.773 253.796 908.133 256.983 910.852 259.28C913.57 261.577 917.062 262.725 921.328 262.725ZM986.578 196.561L987 206.124C992.812 198.811 1000.41 195.155 1009.78 195.155C1025.86 195.155 1033.97 204.225 1034.11 222.366V272.639H1021.1V222.296C1021.05 216.811 1019.79 212.757 1017.3 210.132C1014.87 207.507 1011.05 206.194 1005.84 206.194C1001.62 206.194 997.922 207.319 994.734 209.569C991.547 211.819 989.062 214.772 987.281 218.428V272.639H974.273V196.561H986.578ZM1067.86 272.639H1054.85V196.561H1067.86V272.639ZM1053.8 176.382C1053.8 174.272 1054.43 172.491 1055.7 171.038C1057.01 169.585 1058.93 168.858 1061.46 168.858C1063.99 168.858 1065.91 169.585 1067.23 171.038C1068.54 172.491 1069.2 174.272 1069.2 176.382C1069.2 178.491 1068.54 180.249 1067.23 181.655C1065.91 183.061 1063.99 183.764 1061.46 183.764C1058.93 183.764 1057.01 183.061 1055.7 181.655C1054.43 180.249 1053.8 178.491 1053.8 176.382ZM1085.3 233.897C1085.3 226.444 1086.75 219.741 1089.66 213.788C1092.61 207.835 1096.69 203.241 1101.89 200.007C1107.14 196.772 1113.12 195.155 1119.82 195.155C1130.18 195.155 1138.55 198.741 1144.92 205.913C1151.34 213.085 1154.55 222.624 1154.55 234.53V235.444C1154.55 242.85 1153.12 249.507 1150.27 255.413C1147.45 261.272 1143.4 265.843 1138.1 269.124C1132.85 272.405 1126.8 274.046 1119.96 274.046C1109.65 274.046 1101.28 270.46 1094.86 263.288C1088.48 256.116 1085.3 246.624 1085.3 234.811V233.897ZM1098.38 235.444C1098.38 243.882 1100.32 250.655 1104.21 255.764C1108.15 260.874 1113.4 263.428 1119.96 263.428C1126.57 263.428 1131.82 260.85 1135.71 255.694C1139.6 250.491 1141.55 243.225 1141.55 233.897C1141.55 225.553 1139.55 218.803 1135.57 213.647C1131.63 208.444 1126.38 205.843 1119.82 205.843C1113.4 205.843 1108.22 208.397 1104.28 213.507C1100.34 218.616 1098.38 225.928 1098.38 235.444ZM1183.17 196.561L1183.59 206.124C1189.41 198.811 1197 195.155 1206.38 195.155C1222.45 195.155 1230.56 204.225 1230.7 222.366V272.639H1217.7V222.296C1217.65 216.811 1216.38 212.757 1213.9 210.132C1211.46 207.507 1207.64 206.194 1202.44 206.194C1198.22 206.194 1194.52 207.319 1191.33 209.569C1188.14 211.819 1185.66 214.772 1183.88 218.428V272.639H1170.87V196.561H1183.17Z" fill="black"/>
<mask id="mask0" mask-type="alpha" maskUnits="userSpaceOnUse" x="375" y="113" width="220" height="238">
<path fill-rule="evenodd" clip-rule="evenodd" d="M536.536 193.846L592.385 165.036C570.963 133.623 534.89 113 494 113C428.278 113 375 166.278 375 232C375 297.722 428.278 351 494 351C536.361 351 573.553 328.866 594.64 295.532L536.536 265.558C526.309 277.155 511.207 284.492 494.361 284.492C463.557 284.492 438.585 259.962 438.585 229.702C438.585 199.443 463.557 174.912 494.361 174.912C511.207 174.912 526.309 182.249 536.536 193.846Z" fill="#C4C4C4"/>
</mask>
<g mask="url(#mask0)">
<rect x="328.38" y="95.4673" width="339.148" height="276.688" fill="url(#paint1_linear)"/>
<path d="M463.624 304.268L498.523 391.166L655.341 444.076L573.941 241.371L463.624 304.268Z" fill="#01579B"/>
<path d="M463.223 304.245L595.877 297.604L573.518 241.363L463.223 304.245Z" fill="url(#paint2_linear)"/>
</g>
<rect x="1261" y="202" width="170" height="61" rx="30.5" fill="url(#paint3_linear)"/>
<path d="M1303.29 246V220.406H1312.25C1315.36 220.406 1317.71 221.004 1319.32 222.199C1320.92 223.383 1321.72 225.123 1321.72 227.42C1321.72 228.674 1321.4 229.781 1320.76 230.742C1320.11 231.691 1319.22 232.389 1318.07 232.834C1319.38 233.162 1320.41 233.824 1321.16 234.82C1321.92 235.816 1322.3 237.035 1322.3 238.477C1322.3 240.938 1321.52 242.801 1319.95 244.066C1318.38 245.332 1316.14 245.977 1313.23 246H1303.29ZM1308.56 234.855V241.764H1313.08C1314.32 241.764 1315.29 241.471 1315.98 240.885C1316.68 240.287 1317.03 239.467 1317.03 238.424C1317.03 236.08 1315.82 234.891 1313.39 234.855H1308.56ZM1308.56 231.129H1312.46C1315.12 231.082 1316.45 230.021 1316.45 227.947C1316.45 226.787 1316.11 225.955 1315.43 225.451C1314.76 224.936 1313.7 224.678 1312.25 224.678H1308.56V231.129ZM1341.68 234.908H1331.55V241.764H1343.43V246H1326.28V220.406H1343.4V224.678H1331.55V230.777H1341.68V234.908ZM1366.14 224.678H1358.3V246H1353.03V224.678H1345.3V220.406H1366.14V224.678ZM1381.51 240.727H1372.26L1370.5 246H1364.9L1374.42 220.406H1379.31L1388.89 246H1383.28L1381.51 240.727ZM1373.69 236.455H1380.08L1376.87 226.875L1373.69 236.455Z" fill="white"/>
<defs>
<linearGradient id="paint0_linear" x1="389" y1="597" x2="1416.7" y2="614.483" gradientUnits="userSpaceOnUse">
<stop stop-color="#67B7F7"/>
<stop offset="1" stop-color="#00F0FF"/>
</linearGradient>
<linearGradient id="paint1_linear" x1="474.668" y1="352.431" x2="472.751" y2="14.3786" gradientUnits="userSpaceOnUse">
<stop stop-color="#67B7F7"/>
<stop offset="1" stop-color="#00F0FF"/>
</linearGradient>
<linearGradient id="paint2_linear" x1="479.934" y1="329.233" x2="566.873" y2="294.316" gradientUnits="userSpaceOnUse">
<stop stop-color="#1A237E" stop-opacity="0.4"/>
<stop offset="1" stop-color="#1A237E" stop-opacity="0"/>
</linearGradient>
<linearGradient id="paint3_linear" x1="1261" y1="232" x2="1431" y2="232" gradientUnits="userSpaceOnUse">
<stop stop-color="#FFC700"/>
<stop offset="1" stop-color="#FF7A00"/>
</linearGradient>
</defs>
</svg>
