<svg width="1800" height="427" viewBox="0 0 1800 427" fill="none" xmlns="http://www.w3.org/2000/svg">
<rect width="1800" height="427" rx="213.5" fill="white"/>
<path d="M452.441 230.668C452.441 216.176 455.267 203.142 460.918 191.566C466.66 179.991 474.59 171.059 484.707 164.77C494.915 158.48 506.536 155.336 519.57 155.336C539.714 155.336 555.983 162.309 568.379 176.254C580.866 190.199 587.109 208.747 587.109 231.898V233.676C587.109 248.077 584.329 261.02 578.77 272.504C573.301 283.897 565.417 292.784 555.117 299.164C544.909 305.544 533.151 308.734 519.844 308.734C499.792 308.734 483.522 301.762 471.035 287.816C458.639 273.871 452.441 255.414 452.441 232.445V230.668ZM477.871 233.676C477.871 250.082 481.654 263.253 489.219 273.188C496.875 283.122 507.083 288.09 519.844 288.09C532.695 288.09 542.904 283.077 550.469 273.051C558.034 262.934 561.816 248.806 561.816 230.668C561.816 214.444 557.943 201.319 550.195 191.293C542.539 181.176 532.331 176.117 519.57 176.117C507.083 176.117 497.012 181.085 489.355 191.02C481.699 200.954 477.871 215.173 477.871 233.676ZM642.617 158.07L643.301 174.477C654.147 161.716 668.776 155.336 687.188 155.336C707.878 155.336 721.96 163.266 729.434 179.125C734.355 172.016 740.736 166.273 748.574 161.898C756.504 157.523 765.846 155.336 776.602 155.336C809.049 155.336 825.547 172.517 826.094 206.879V306H800.801V208.383C800.801 197.81 798.385 189.926 793.555 184.73C788.724 179.444 780.612 176.801 769.219 176.801C759.831 176.801 752.038 179.626 745.84 185.277C739.642 190.837 736.042 198.357 735.039 207.836V306H709.609V209.066C709.609 187.556 699.082 176.801 678.027 176.801C661.439 176.801 650.091 183.865 643.984 197.992V306H618.691V158.07H642.617ZM989.336 233.676C989.336 256.189 984.186 274.327 973.887 288.09C963.587 301.853 949.642 308.734 932.051 308.734C914.095 308.734 899.967 303.038 889.668 291.645V362.875H864.375V158.07H887.48L888.711 174.477C899.01 161.716 913.32 155.336 931.641 155.336C949.414 155.336 963.451 162.035 973.75 175.434C984.141 188.832 989.336 207.471 989.336 231.352V233.676ZM964.043 230.805C964.043 214.125 960.488 200.954 953.379 191.293C946.27 181.632 936.517 176.801 924.121 176.801C908.809 176.801 897.324 183.591 889.668 197.172V267.855C897.233 281.345 908.809 288.09 924.395 288.09C936.517 288.09 946.133 283.305 953.242 273.734C960.443 264.073 964.043 249.763 964.043 230.805ZM1112.93 306C1111.47 303.083 1110.29 297.888 1109.38 290.414C1097.62 302.628 1083.58 308.734 1067.27 308.734C1052.68 308.734 1040.7 304.633 1031.31 296.43C1022.01 288.135 1017.36 277.654 1017.36 264.984C1017.36 249.581 1023.2 237.641 1034.86 229.164C1046.62 220.596 1063.12 216.312 1084.36 216.312H1108.96V204.691C1108.96 195.85 1106.32 188.832 1101.04 183.637C1095.75 178.35 1087.96 175.707 1077.66 175.707C1068.63 175.707 1061.07 177.986 1054.96 182.543C1048.85 187.1 1045.8 192.615 1045.8 199.086H1020.37C1020.37 191.703 1022.97 184.594 1028.16 177.758C1033.45 170.831 1040.56 165.362 1049.49 161.352C1058.52 157.341 1068.4 155.336 1079.16 155.336C1096.2 155.336 1109.56 159.62 1119.22 168.188C1128.88 176.664 1133.89 188.376 1134.26 203.324V271.41C1134.26 284.991 1135.99 295.792 1139.45 303.812V306H1112.93ZM1070.96 286.723C1078.89 286.723 1086.41 284.672 1093.52 280.57C1100.62 276.469 1105.77 271.137 1108.96 264.574V234.223H1089.14C1058.15 234.223 1042.66 243.292 1042.66 261.43C1042.66 269.359 1045.3 275.557 1050.59 280.023C1055.87 284.49 1062.66 286.723 1070.96 286.723ZM1197.83 158.07L1198.65 176.664C1209.95 162.445 1224.72 155.336 1242.95 155.336C1274.21 155.336 1289.98 172.973 1290.25 208.246V306H1264.96V208.109C1264.87 197.445 1262.41 189.561 1257.58 184.457C1252.84 179.353 1245.41 176.801 1235.29 176.801C1227.09 176.801 1219.89 178.988 1213.69 183.363C1207.49 187.738 1202.66 193.48 1199.2 200.59V306H1173.91V158.07H1197.83ZM1355.88 306H1330.59V158.07H1355.88V306ZM1328.54 118.832C1328.54 114.73 1329.77 111.267 1332.23 108.441C1334.78 105.616 1338.52 104.203 1343.44 104.203C1348.36 104.203 1352.1 105.616 1354.65 108.441C1357.2 111.267 1358.48 114.73 1358.48 118.832C1358.48 122.934 1357.2 126.352 1354.65 129.086C1352.1 131.82 1348.36 133.188 1343.44 133.188C1338.52 133.188 1334.78 131.82 1332.23 129.086C1329.77 126.352 1328.54 122.934 1328.54 118.832ZM1389.79 230.668C1389.79 216.176 1392.61 203.142 1398.26 191.566C1404 179.991 1411.93 171.059 1422.05 164.77C1432.26 158.48 1443.88 155.336 1456.91 155.336C1477.06 155.336 1493.33 162.309 1505.72 176.254C1518.21 190.199 1524.45 208.747 1524.45 231.898V233.676C1524.45 248.077 1521.67 261.02 1516.11 272.504C1510.64 283.897 1502.76 292.784 1492.46 299.164C1482.25 305.544 1470.49 308.734 1457.19 308.734C1437.14 308.734 1420.87 301.762 1408.38 287.816C1395.98 273.871 1389.79 255.414 1389.79 232.445V230.668ZM1415.21 233.676C1415.21 250.082 1419 263.253 1426.56 273.188C1434.22 283.122 1444.43 288.09 1457.19 288.09C1470.04 288.09 1480.25 283.077 1487.81 273.051C1495.38 262.934 1499.16 248.806 1499.16 230.668C1499.16 214.444 1495.29 201.319 1487.54 191.293C1479.88 181.176 1469.67 176.117 1456.91 176.117C1444.43 176.117 1434.36 181.085 1426.7 191.02C1419.04 200.954 1415.21 215.173 1415.21 233.676ZM1580.1 158.07L1580.92 176.664C1592.22 162.445 1606.99 155.336 1625.21 155.336C1656.48 155.336 1672.25 172.973 1672.52 208.246V306H1647.23V208.109C1647.14 197.445 1644.67 189.561 1639.84 184.457C1635.1 179.353 1627.68 176.801 1617.56 176.801C1609.36 176.801 1602.15 178.988 1595.96 183.363C1589.76 187.738 1584.93 193.48 1581.46 200.59V306H1556.17V158.07H1580.1Z" fill="black"/>
<mask id="mask0" mask-type="alpha" maskUnits="userSpaceOnUse" x="0" y="0" width="399" height="427">
<path fill-rule="evenodd" clip-rule="evenodd" d="M294.829 147.557L397.785 94.4451C358.755 37.4768 292.505 0 217.344 0C97.3082 0 0 95.5872 0 213.5C0 331.413 97.3082 427 217.344 427C292.83 427 359.328 389.199 398.29 331.815L294.829 278.443C276.163 299.61 248.6 313 217.853 313C161.63 313 116.053 268.228 116.053 213C116.053 157.772 161.63 113 217.853 113C248.6 113 276.163 126.39 294.829 147.557Z" fill="#C4C4C4"/>
</mask>
<g mask="url(#mask0)">
<rect x="-85.09" y="-32" width="619" height="505" fill="url(#paint0_linear)"/>
<path d="M161.753 349.096L225.45 507.7L511.667 604.268L363.099 234.3L161.753 349.096Z" fill="#01579B"/>
<path d="M161.022 349.055L403.136 336.935L362.328 234.286L161.022 349.055Z" fill="url(#paint1_linear)"/>
</g>
<defs>
<linearGradient id="paint0_linear" x1="181.91" y1="437" x2="178.41" y2="-180" gradientUnits="userSpaceOnUse">
<stop stop-color="#67B7F7"/>
<stop offset="1" stop-color="#00F0FF"/>
</linearGradient>
<linearGradient id="paint1_linear" x1="191.522" y1="394.663" x2="350.2" y2="330.934" gradientUnits="userSpaceOnUse">
<stop stop-color="#1A237E" stop-opacity="0.4"/>
<stop offset="1" stop-color="#1A237E" stop-opacity="0"/>
</linearGradient>
</defs>
</svg>
